<?xml version="1.0" encoding="utf-8"?>
<svg xmlns="http://www.w3.org/2000/svg" xmlns:xlink="http://www.w3.org/1999/xlink" width="700" height="500" viewBox="0 0 2800 2000">
<defs>
  <clipPath id="clip210">
    <rect x="0" y="0" width="2800" height="2000"/>
  </clipPath>
</defs>
<path clip-path="url(#clip210)" d="
M0 2000 L2800 2000 L2800 0 L0 0  Z
  " fill="#ffffff" fill-rule="evenodd" fill-opacity="1"/>
<defs>
  <clipPath id="clip211">
    <rect x="560" y="0" width="1961" height="1961"/>
  </clipPath>
</defs>
<path clip-path="url(#clip210)" d="
M248.472 1759.53 L2752.76 1759.53 L2752.76 47.2441 L248.472 47.2441  Z
  " fill="#ffffff" fill-rule="evenodd" fill-opacity="1"/>
<defs>
  <clipPath id="clip212">
    <rect x="248" y="47" width="2505" height="1713"/>
  </clipPath>
</defs>
<polyline clip-path="url(#clip212)" style="stroke:#222255; stroke-width:2; stroke-opacity:0.1; fill:none" points="
  319.348,1759.53 319.348,47.2441 
  "/>
<polyline clip-path="url(#clip212)" style="stroke:#222255; stroke-width:2; stroke-opacity:0.1; fill:none" points="
  1018.24,1759.53 1018.24,47.2441 
  "/>
<polyline clip-path="url(#clip212)" style="stroke:#222255; stroke-width:2; stroke-opacity:0.1; fill:none" points="
  1717.13,1759.53 1717.13,47.2441 
  "/>
<polyline clip-path="url(#clip212)" style="stroke:#222255; stroke-width:2; stroke-opacity:0.1; fill:none" points="
  2416.03,1759.53 2416.03,47.2441 
  "/>
<polyline clip-path="url(#clip212)" style="stroke:#222255; stroke-width:2; stroke-opacity:0.1; fill:none" points="
  248.472,1629.27 2752.76,1629.27 
  "/>
<polyline clip-path="url(#clip212)" style="stroke:#222255; stroke-width:2; stroke-opacity:0.1; fill:none" points="
  248.472,1243.81 2752.76,1243.81 
  "/>
<polyline clip-path="url(#clip212)" style="stroke:#222255; stroke-width:2; stroke-opacity:0.1; fill:none" points="
  248.472,858.346 2752.76,858.346 
  "/>
<polyline clip-path="url(#clip212)" style="stroke:#222255; stroke-width:2; stroke-opacity:0.1; fill:none" points="
  248.472,472.882 2752.76,472.882 
  "/>
<polyline clip-path="url(#clip212)" style="stroke:#222255; stroke-width:2; stroke-opacity:0.1; fill:none" points="
  248.472,87.4178 2752.76,87.4178 
  "/>
<polyline clip-path="url(#clip212)" style="stroke:#222255; stroke-width:2; stroke-opacity:0.05; fill:none" points="
  537.516,1759.53 537.516,47.2441 
  "/>
<polyline clip-path="url(#clip212)" style="stroke:#222255; stroke-width:2; stroke-opacity:0.05; fill:none" points="
  697.67,1759.53 697.67,47.2441 
  "/>
<polyline clip-path="url(#clip212)" style="stroke:#222255; stroke-width:2; stroke-opacity:0.05; fill:none" points="
  824.271,1759.53 824.271,47.2441 
  "/>
<polyline clip-path="url(#clip212)" style="stroke:#222255; stroke-width:2; stroke-opacity:0.05; fill:none" points="
  928.971,1759.53 928.971,47.2441 
  "/>
<polyline clip-path="url(#clip212)" style="stroke:#222255; stroke-width:2; stroke-opacity:0.05; fill:none" points="
  1236.41,1759.53 1236.41,47.2441 
  "/>
<polyline clip-path="url(#clip212)" style="stroke:#222255; stroke-width:2; stroke-opacity:0.05; fill:none" points="
  1396.56,1759.53 1396.56,47.2441 
  "/>
<polyline clip-path="url(#clip212)" style="stroke:#222255; stroke-width:2; stroke-opacity:0.05; fill:none" points="
  1523.16,1759.53 1523.16,47.2441 
  "/>
<polyline clip-path="url(#clip212)" style="stroke:#222255; stroke-width:2; stroke-opacity:0.05; fill:none" points="
  1627.86,1759.53 1627.86,47.2441 
  "/>
<polyline clip-path="url(#clip212)" style="stroke:#222255; stroke-width:2; stroke-opacity:0.05; fill:none" points="
  1935.3,1759.53 1935.3,47.2441 
  "/>
<polyline clip-path="url(#clip212)" style="stroke:#222255; stroke-width:2; stroke-opacity:0.05; fill:none" points="
  2095.46,1759.53 2095.46,47.2441 
  "/>
<polyline clip-path="url(#clip212)" style="stroke:#222255; stroke-width:2; stroke-opacity:0.05; fill:none" points="
  2222.06,1759.53 2222.06,47.2441 
  "/>
<polyline clip-path="url(#clip212)" style="stroke:#222255; stroke-width:2; stroke-opacity:0.05; fill:none" points="
  2326.76,1759.53 2326.76,47.2441 
  "/>
<polyline clip-path="url(#clip212)" style="stroke:#222255; stroke-width:2; stroke-opacity:0.05; fill:none" points="
  2634.19,1759.53 2634.19,47.2441 
  "/>
<polyline clip-path="url(#clip212)" style="stroke:#222255; stroke-width:2; stroke-opacity:0.05; fill:none" points="
  248.472,1706.37 2752.76,1706.37 
  "/>
<polyline clip-path="url(#clip212)" style="stroke:#222255; stroke-width:2; stroke-opacity:0.05; fill:none" points="
  248.472,1552.18 2752.76,1552.18 
  "/>
<polyline clip-path="url(#clip212)" style="stroke:#222255; stroke-width:2; stroke-opacity:0.05; fill:none" points="
  248.472,1475.09 2752.76,1475.09 
  "/>
<polyline clip-path="url(#clip212)" style="stroke:#222255; stroke-width:2; stroke-opacity:0.05; fill:none" points="
  248.472,1398 2752.76,1398 
  "/>
<polyline clip-path="url(#clip212)" style="stroke:#222255; stroke-width:2; stroke-opacity:0.05; fill:none" points="
  248.472,1320.9 2752.76,1320.9 
  "/>
<polyline clip-path="url(#clip212)" style="stroke:#222255; stroke-width:2; stroke-opacity:0.05; fill:none" points="
  248.472,1166.72 2752.76,1166.72 
  "/>
<polyline clip-path="url(#clip212)" style="stroke:#222255; stroke-width:2; stroke-opacity:0.05; fill:none" points="
  248.472,1089.62 2752.76,1089.62 
  "/>
<polyline clip-path="url(#clip212)" style="stroke:#222255; stroke-width:2; stroke-opacity:0.05; fill:none" points="
  248.472,1012.53 2752.76,1012.53 
  "/>
<polyline clip-path="url(#clip212)" style="stroke:#222255; stroke-width:2; stroke-opacity:0.05; fill:none" points="
  248.472,935.439 2752.76,935.439 
  "/>
<polyline clip-path="url(#clip212)" style="stroke:#222255; stroke-width:2; stroke-opacity:0.05; fill:none" points="
  248.472,781.253 2752.76,781.253 
  "/>
<polyline clip-path="url(#clip212)" style="stroke:#222255; stroke-width:2; stroke-opacity:0.05; fill:none" points="
  248.472,704.16 2752.76,704.16 
  "/>
<polyline clip-path="url(#clip212)" style="stroke:#222255; stroke-width:2; stroke-opacity:0.05; fill:none" points="
  248.472,627.068 2752.76,627.068 
  "/>
<polyline clip-path="url(#clip212)" style="stroke:#222255; stroke-width:2; stroke-opacity:0.05; fill:none" points="
  248.472,549.975 2752.76,549.975 
  "/>
<polyline clip-path="url(#clip212)" style="stroke:#222255; stroke-width:2; stroke-opacity:0.05; fill:none" points="
  248.472,395.789 2752.76,395.789 
  "/>
<polyline clip-path="url(#clip212)" style="stroke:#222255; stroke-width:2; stroke-opacity:0.05; fill:none" points="
  248.472,318.696 2752.76,318.696 
  "/>
<polyline clip-path="url(#clip212)" style="stroke:#222255; stroke-width:2; stroke-opacity:0.05; fill:none" points="
  248.472,241.603 2752.76,241.603 
  "/>
<polyline clip-path="url(#clip212)" style="stroke:#222255; stroke-width:2; stroke-opacity:0.05; fill:none" points="
  248.472,164.511 2752.76,164.511 
  "/>
<polyline clip-path="url(#clip210)" style="stroke:#222255; stroke-width:4; stroke-opacity:0; fill:none" points="
  319.348,1759.53 319.348,1738.98 
  "/>
<polyline clip-path="url(#clip210)" style="stroke:#222255; stroke-width:4; stroke-opacity:0; fill:none" points="
  1018.24,1759.53 1018.24,1738.98 
  "/>
<polyline clip-path="url(#clip210)" style="stroke:#222255; stroke-width:4; stroke-opacity:0; fill:none" points="
  1717.13,1759.53 1717.13,1738.98 
  "/>
<polyline clip-path="url(#clip210)" style="stroke:#222255; stroke-width:4; stroke-opacity:0; fill:none" points="
  2416.03,1759.53 2416.03,1738.98 
  "/>
<polyline clip-path="url(#clip210)" style="stroke:#222255; stroke-width:4; stroke-opacity:0; fill:none" points="
  537.516,1759.53 537.516,1749.25 
  "/>
<polyline clip-path="url(#clip210)" style="stroke:#222255; stroke-width:4; stroke-opacity:0; fill:none" points="
  697.67,1759.53 697.67,1749.25 
  "/>
<polyline clip-path="url(#clip210)" style="stroke:#222255; stroke-width:4; stroke-opacity:0; fill:none" points="
  824.271,1759.53 824.271,1749.25 
  "/>
<polyline clip-path="url(#clip210)" style="stroke:#222255; stroke-width:4; stroke-opacity:0; fill:none" points="
  928.971,1759.53 928.971,1749.25 
  "/>
<polyline clip-path="url(#clip210)" style="stroke:#222255; stroke-width:4; stroke-opacity:0; fill:none" points="
  1236.41,1759.53 1236.41,1749.25 
  "/>
<polyline clip-path="url(#clip210)" style="stroke:#222255; stroke-width:4; stroke-opacity:0; fill:none" points="
  1396.56,1759.53 1396.56,1749.25 
  "/>
<polyline clip-path="url(#clip210)" style="stroke:#222255; stroke-width:4; stroke-opacity:0; fill:none" points="
  1523.16,1759.53 1523.16,1749.25 
  "/>
<polyline clip-path="url(#clip210)" style="stroke:#222255; stroke-width:4; stroke-opacity:0; fill:none" points="
  1627.86,1759.53 1627.86,1749.25 
  "/>
<polyline clip-path="url(#clip210)" style="stroke:#222255; stroke-width:4; stroke-opacity:0; fill:none" points="
  1935.3,1759.53 1935.3,1749.25 
  "/>
<polyline clip-path="url(#clip210)" style="stroke:#222255; stroke-width:4; stroke-opacity:0; fill:none" points="
  2095.46,1759.53 2095.46,1749.25 
  "/>
<polyline clip-path="url(#clip210)" style="stroke:#222255; stroke-width:4; stroke-opacity:0; fill:none" points="
  2222.06,1759.53 2222.06,1749.25 
  "/>
<polyline clip-path="url(#clip210)" style="stroke:#222255; stroke-width:4; stroke-opacity:0; fill:none" points="
  2326.76,1759.53 2326.76,1749.25 
  "/>
<polyline clip-path="url(#clip210)" style="stroke:#222255; stroke-width:4; stroke-opacity:0; fill:none" points="
  2634.19,1759.53 2634.19,1749.25 
  "/>
<polyline clip-path="url(#clip210)" style="stroke:#222255; stroke-width:4; stroke-opacity:0; fill:none" points="
  248.472,1629.27 278.524,1629.27 
  "/>
<polyline clip-path="url(#clip210)" style="stroke:#222255; stroke-width:4; stroke-opacity:0; fill:none" points="
  248.472,1243.81 278.524,1243.81 
  "/>
<polyline clip-path="url(#clip210)" style="stroke:#222255; stroke-width:4; stroke-opacity:0; fill:none" points="
  248.472,858.346 278.524,858.346 
  "/>
<polyline clip-path="url(#clip210)" style="stroke:#222255; stroke-width:4; stroke-opacity:0; fill:none" points="
  248.472,472.882 278.524,472.882 
  "/>
<polyline clip-path="url(#clip210)" style="stroke:#222255; stroke-width:4; stroke-opacity:0; fill:none" points="
  248.472,87.4178 278.524,87.4178 
  "/>
<polyline clip-path="url(#clip210)" style="stroke:#222255; stroke-width:4; stroke-opacity:0; fill:none" points="
  248.472,1706.37 263.498,1706.37 
  "/>
<polyline clip-path="url(#clip210)" style="stroke:#222255; stroke-width:4; stroke-opacity:0; fill:none" points="
  248.472,1552.18 263.498,1552.18 
  "/>
<polyline clip-path="url(#clip210)" style="stroke:#222255; stroke-width:4; stroke-opacity:0; fill:none" points="
  248.472,1475.09 263.498,1475.09 
  "/>
<polyline clip-path="url(#clip210)" style="stroke:#222255; stroke-width:4; stroke-opacity:0; fill:none" points="
  248.472,1398 263.498,1398 
  "/>
<polyline clip-path="url(#clip210)" style="stroke:#222255; stroke-width:4; stroke-opacity:0; fill:none" points="
  248.472,1320.9 263.498,1320.9 
  "/>
<polyline clip-path="url(#clip210)" style="stroke:#222255; stroke-width:4; stroke-opacity:0; fill:none" points="
  248.472,1166.72 263.498,1166.72 
  "/>
<polyline clip-path="url(#clip210)" style="stroke:#222255; stroke-width:4; stroke-opacity:0; fill:none" points="
  248.472,1089.62 263.498,1089.62 
  "/>
<polyline clip-path="url(#clip210)" style="stroke:#222255; stroke-width:4; stroke-opacity:0; fill:none" points="
  248.472,1012.53 263.498,1012.53 
  "/>
<polyline clip-path="url(#clip210)" style="stroke:#222255; stroke-width:4; stroke-opacity:0; fill:none" points="
  248.472,935.439 263.498,935.439 
  "/>
<polyline clip-path="url(#clip210)" style="stroke:#222255; stroke-width:4; stroke-opacity:0; fill:none" points="
  248.472,781.253 263.498,781.253 
  "/>
<polyline clip-path="url(#clip210)" style="stroke:#222255; stroke-width:4; stroke-opacity:0; fill:none" points="
  248.472,704.16 263.498,704.16 
  "/>
<polyline clip-path="url(#clip210)" style="stroke:#222255; stroke-width:4; stroke-opacity:0; fill:none" points="
  248.472,627.068 263.498,627.068 
  "/>
<polyline clip-path="url(#clip210)" style="stroke:#222255; stroke-width:4; stroke-opacity:0; fill:none" points="
  248.472,549.975 263.498,549.975 
  "/>
<polyline clip-path="url(#clip210)" style="stroke:#222255; stroke-width:4; stroke-opacity:0; fill:none" points="
  248.472,395.789 263.498,395.789 
  "/>
<polyline clip-path="url(#clip210)" style="stroke:#222255; stroke-width:4; stroke-opacity:0; fill:none" points="
  248.472,318.696 263.498,318.696 
  "/>
<polyline clip-path="url(#clip210)" style="stroke:#222255; stroke-width:4; stroke-opacity:0; fill:none" points="
  248.472,241.603 263.498,241.603 
  "/>
<polyline clip-path="url(#clip210)" style="stroke:#222255; stroke-width:4; stroke-opacity:0; fill:none" points="
  248.472,164.511 263.498,164.511 
  "/>
<path clip-path="url(#clip210)" d="M 0 0 M271.501 1832.6 L279.14 1832.6 L279.14 1806.23 L270.829 1807.9 L270.829 1803.64 L279.093 1801.97 L283.769 1801.97 L283.769 1832.6 L291.408 1832.6 L291.408 1836.53 L271.501 1836.53 L271.501 1832.6 Z" fill="#000000" fill-rule="evenodd" fill-opacity="1" /><path clip-path="url(#clip210)" d="M 0 0 M306.477 1805.05 Q302.866 1805.05 301.038 1808.62 Q299.232 1812.16 299.232 1819.29 Q299.232 1826.4 301.038 1829.96 Q302.866 1833.5 306.477 1833.5 Q310.112 1833.5 311.917 1829.96 Q313.746 1826.4 313.746 1819.29 Q313.746 1812.16 311.917 1808.62 Q310.112 1805.05 306.477 1805.05 M306.477 1801.35 Q312.288 1801.35 315.343 1805.96 Q318.422 1810.54 318.422 1819.29 Q318.422 1828.02 315.343 1832.62 Q312.288 1837.21 306.477 1837.21 Q300.667 1837.21 297.589 1832.62 Q294.533 1828.02 294.533 1819.29 Q294.533 1810.54 297.589 1805.96 Q300.667 1801.35 306.477 1801.35 Z" fill="#000000" fill-rule="evenodd" fill-opacity="1" /><path clip-path="url(#clip210)" d="M 0 0 M328.127 1783.55 Q325.193 1783.55 323.707 1786.44 Q322.24 1789.32 322.24 1795.11 Q322.24 1800.89 323.707 1803.78 Q325.193 1806.66 328.127 1806.66 Q331.079 1806.66 332.546 1803.78 Q334.032 1800.89 334.032 1795.11 Q334.032 1789.32 332.546 1786.44 Q331.079 1783.55 328.127 1783.55 M328.127 1780.54 Q332.847 1780.54 335.33 1784.28 Q337.831 1788 337.831 1795.11 Q337.831 1802.2 335.33 1805.95 Q332.847 1809.67 328.127 1809.67 Q323.406 1809.67 320.904 1805.95 Q318.422 1802.2 318.422 1795.11 Q318.422 1788 320.904 1784.28 Q323.406 1780.54 328.127 1780.54 Z" fill="#000000" fill-rule="evenodd" fill-opacity="1" /><path clip-path="url(#clip210)" d="M 0 0 M341.95 1804.35 L345.919 1804.35 L345.919 1809.12 L341.95 1809.12 L341.95 1804.35 Z" fill="#000000" fill-rule="evenodd" fill-opacity="1" /><path clip-path="url(#clip210)" d="M 0 0 M358.163 1783.55 Q355.229 1783.55 353.743 1786.44 Q352.276 1789.32 352.276 1795.11 Q352.276 1800.89 353.743 1803.78 Q355.229 1806.66 358.163 1806.66 Q361.115 1806.66 362.582 1803.78 Q364.068 1800.89 364.068 1795.11 Q364.068 1789.32 362.582 1786.44 Q361.115 1783.55 358.163 1783.55 M358.163 1780.54 Q362.883 1780.54 365.366 1784.28 Q367.867 1788 367.867 1795.11 Q367.867 1802.2 365.366 1805.95 Q362.883 1809.67 358.163 1809.67 Q353.442 1809.67 350.94 1805.95 Q348.458 1802.2 348.458 1795.11 Q348.458 1788 350.94 1784.28 Q353.442 1780.54 358.163 1780.54 Z" fill="#000000" fill-rule="evenodd" fill-opacity="1" /><path clip-path="url(#clip210)" d="M 0 0 M970.798 1832.6 L978.437 1832.6 L978.437 1806.23 L970.127 1807.9 L970.127 1803.64 L978.39 1801.97 L983.066 1801.97 L983.066 1832.6 L990.705 1832.6 L990.705 1836.53 L970.798 1836.53 L970.798 1832.6 Z" fill="#000000" fill-rule="evenodd" fill-opacity="1" /><path clip-path="url(#clip210)" d="M 0 0 M1005.77 1805.05 Q1002.16 1805.05 1000.33 1808.62 Q998.529 1812.16 998.529 1819.29 Q998.529 1826.4 1000.33 1829.96 Q1002.16 1833.5 1005.77 1833.5 Q1009.41 1833.5 1011.21 1829.96 Q1013.04 1826.4 1013.04 1819.29 Q1013.04 1812.16 1011.21 1808.62 Q1009.41 1805.05 1005.77 1805.05 M1005.77 1801.35 Q1011.58 1801.35 1014.64 1805.96 Q1017.72 1810.54 1017.72 1819.29 Q1017.72 1828.02 1014.64 1832.62 Q1011.58 1837.21 1005.77 1837.21 Q999.964 1837.21 996.886 1832.62 Q993.83 1828.02 993.83 1819.29 Q993.83 1810.54 996.886 1805.96 Q999.964 1801.35 1005.77 1801.35 Z" fill="#000000" fill-rule="evenodd" fill-opacity="1" /><path clip-path="url(#clip210)" d="M 0 0 M1027.42 1783.55 Q1024.49 1783.55 1023 1786.44 Q1021.54 1789.32 1021.54 1795.11 Q1021.54 1800.89 1023 1803.78 Q1024.49 1806.66 1027.42 1806.66 Q1030.38 1806.66 1031.84 1803.78 Q1033.33 1800.89 1033.33 1795.11 Q1033.33 1789.32 1031.84 1786.44 Q1030.38 1783.55 1027.42 1783.55 M1027.42 1780.54 Q1032.14 1780.54 1034.63 1784.28 Q1037.13 1788 1037.13 1795.11 Q1037.13 1802.2 1034.63 1805.95 Q1032.14 1809.67 1027.42 1809.67 Q1022.7 1809.67 1020.2 1805.95 Q1017.72 1802.2 1017.72 1795.11 Q1017.72 1788 1020.2 1784.28 Q1022.7 1780.54 1027.42 1780.54 Z" fill="#000000" fill-rule="evenodd" fill-opacity="1" /><path clip-path="url(#clip210)" d="M 0 0 M1041.25 1804.35 L1045.22 1804.35 L1045.22 1809.12 L1041.25 1809.12 L1041.25 1804.35 Z" fill="#000000" fill-rule="evenodd" fill-opacity="1" /><path clip-path="url(#clip210)" d="M 0 0 M1049.37 1781.04 L1064.29 1781.04 L1064.29 1784.24 L1052.85 1784.24 L1052.85 1791.13 Q1053.68 1790.84 1054.51 1790.71 Q1055.33 1790.56 1056.16 1790.56 Q1060.86 1790.56 1063.61 1793.14 Q1066.36 1795.71 1066.36 1800.12 Q1066.36 1804.65 1063.53 1807.17 Q1060.71 1809.67 1055.58 1809.67 Q1053.81 1809.67 1051.97 1809.37 Q1050.14 1809.07 1048.19 1808.47 L1048.19 1804.65 Q1049.88 1805.57 1051.69 1806.02 Q1053.49 1806.47 1055.5 1806.47 Q1058.76 1806.47 1060.66 1804.76 Q1062.56 1803.05 1062.56 1800.12 Q1062.56 1797.18 1060.66 1795.47 Q1058.76 1793.76 1055.5 1793.76 Q1053.98 1793.76 1052.46 1794.1 Q1050.95 1794.44 1049.37 1795.15 L1049.37 1781.04 Z" fill="#000000" fill-rule="evenodd" fill-opacity="1" /><path clip-path="url(#clip210)" d="M 0 0 M1670.63 1832.6 L1678.27 1832.6 L1678.27 1806.23 L1669.96 1807.9 L1669.96 1803.64 L1678.22 1801.97 L1682.9 1801.97 L1682.9 1832.6 L1690.54 1832.6 L1690.54 1836.53 L1670.63 1836.53 L1670.63 1832.6 Z" fill="#000000" fill-rule="evenodd" fill-opacity="1" /><path clip-path="url(#clip210)" d="M 0 0 M1705.61 1805.05 Q1702 1805.05 1700.17 1808.62 Q1698.36 1812.16 1698.36 1819.29 Q1698.36 1826.4 1700.17 1829.96 Q1702 1833.5 1705.61 1833.5 Q1709.24 1833.5 1711.05 1829.96 Q1712.88 1826.4 1712.88 1819.29 Q1712.88 1812.16 1711.05 1808.62 Q1709.24 1805.05 1705.61 1805.05 M1705.61 1801.35 Q1711.42 1801.35 1714.47 1805.96 Q1717.55 1810.54 1717.55 1819.29 Q1717.55 1828.02 1714.47 1832.62 Q1711.42 1837.21 1705.61 1837.21 Q1699.8 1837.21 1696.72 1832.62 Q1693.66 1828.02 1693.66 1819.29 Q1693.66 1810.54 1696.72 1805.96 Q1699.8 1801.35 1705.61 1801.35 Z" fill="#000000" fill-rule="evenodd" fill-opacity="1" /><path clip-path="url(#clip210)" d="M 0 0 M1718.1 1805.93 L1724.3 1805.93 L1724.3 1784.5 L1717.55 1785.86 L1717.55 1782.4 L1724.27 1781.04 L1728.07 1781.04 L1728.07 1805.93 L1734.27 1805.93 L1734.27 1809.12 L1718.1 1809.12 L1718.1 1805.93 Z" fill="#000000" fill-rule="evenodd" fill-opacity="1" /><path clip-path="url(#clip210)" d="M 0 0 M1738.39 1804.35 L1742.36 1804.35 L1742.36 1809.12 L1738.39 1809.12 L1738.39 1804.35 Z" fill="#000000" fill-rule="evenodd" fill-opacity="1" /><path clip-path="url(#clip210)" d="M 0 0 M1754.6 1783.55 Q1751.67 1783.55 1750.18 1786.44 Q1748.72 1789.32 1748.72 1795.11 Q1748.72 1800.89 1750.18 1803.78 Q1751.67 1806.66 1754.6 1806.66 Q1757.56 1806.66 1759.02 1803.78 Q1760.51 1800.89 1760.51 1795.11 Q1760.51 1789.32 1759.02 1786.44 Q1757.56 1783.55 1754.6 1783.55 M1754.6 1780.54 Q1759.32 1780.54 1761.81 1784.28 Q1764.31 1788 1764.31 1795.11 Q1764.31 1802.2 1761.81 1805.95 Q1759.32 1809.67 1754.6 1809.67 Q1749.88 1809.67 1747.38 1805.95 Q1744.9 1802.2 1744.9 1795.11 Q1744.9 1788 1747.38 1784.28 Q1749.88 1780.54 1754.6 1780.54 Z" fill="#000000" fill-rule="evenodd" fill-opacity="1" /><path clip-path="url(#clip210)" d="M 0 0 M2369.93 1832.6 L2377.57 1832.6 L2377.57 1806.23 L2369.26 1807.9 L2369.26 1803.64 L2377.52 1801.97 L2382.2 1801.97 L2382.2 1832.6 L2389.84 1832.6 L2389.84 1836.53 L2369.93 1836.53 L2369.93 1832.6 Z" fill="#000000" fill-rule="evenodd" fill-opacity="1" /><path clip-path="url(#clip210)" d="M 0 0 M2404.9 1805.05 Q2401.29 1805.05 2399.46 1808.62 Q2397.66 1812.16 2397.66 1819.29 Q2397.66 1826.4 2399.46 1829.96 Q2401.29 1833.5 2404.9 1833.5 Q2408.54 1833.5 2410.34 1829.96 Q2412.17 1826.4 2412.17 1819.29 Q2412.17 1812.16 2410.34 1808.62 Q2408.54 1805.05 2404.9 1805.05 M2404.9 1801.35 Q2410.71 1801.35 2413.77 1805.96 Q2416.85 1810.54 2416.85 1819.29 Q2416.85 1828.02 2413.77 1832.62 Q2410.71 1837.21 2404.9 1837.21 Q2399.09 1837.21 2396.02 1832.62 Q2392.96 1828.02 2392.96 1819.29 Q2392.96 1810.54 2396.02 1805.96 Q2399.09 1801.35 2404.9 1801.35 Z" fill="#000000" fill-rule="evenodd" fill-opacity="1" /><path clip-path="url(#clip210)" d="M 0 0 M2417.39 1805.93 L2423.6 1805.93 L2423.6 1784.5 L2416.85 1785.86 L2416.85 1782.4 L2423.56 1781.04 L2427.36 1781.04 L2427.36 1805.93 L2433.57 1805.93 L2433.57 1809.12 L2417.39 1809.12 L2417.39 1805.93 Z" fill="#000000" fill-rule="evenodd" fill-opacity="1" /><path clip-path="url(#clip210)" d="M 0 0 M2437.69 1804.35 L2441.66 1804.35 L2441.66 1809.12 L2437.69 1809.12 L2437.69 1804.35 Z" fill="#000000" fill-rule="evenodd" fill-opacity="1" /><path clip-path="url(#clip210)" d="M 0 0 M2445.81 1781.04 L2460.73 1781.04 L2460.73 1784.24 L2449.29 1784.24 L2449.29 1791.13 Q2450.12 1790.84 2450.95 1790.71 Q2451.78 1790.56 2452.6 1790.56 Q2457.3 1790.56 2460.05 1793.14 Q2462.8 1795.71 2462.8 1800.12 Q2462.8 1804.65 2459.98 1807.17 Q2457.15 1809.67 2452.02 1809.67 Q2450.25 1809.67 2448.41 1809.37 Q2446.58 1809.07 2444.63 1808.47 L2444.63 1804.65 Q2446.32 1805.57 2448.13 1806.02 Q2449.93 1806.47 2451.94 1806.47 Q2455.2 1806.47 2457.1 1804.76 Q2459 1803.05 2459 1800.12 Q2459 1797.18 2457.1 1795.47 Q2455.2 1793.76 2451.94 1793.76 Q2450.42 1793.76 2448.9 1794.1 Q2447.39 1794.44 2445.81 1795.15 L2445.81 1781.04 Z" fill="#000000" fill-rule="evenodd" fill-opacity="1" /><path clip-path="url(#clip210)" d="M 0 0 M145.612 1631.67 L158.089 1631.67 L158.089 1635.47 L145.612 1635.47 L145.612 1631.67 Z" fill="#000000" fill-rule="evenodd" fill-opacity="1" /><path clip-path="url(#clip210)" d="M 0 0 M173.158 1615.07 Q169.547 1615.07 167.718 1618.64 Q165.913 1622.18 165.913 1629.31 Q165.913 1636.42 167.718 1639.98 Q169.547 1643.52 173.158 1643.52 Q176.792 1643.52 178.598 1639.98 Q180.426 1636.42 180.426 1629.31 Q180.426 1622.18 178.598 1618.64 Q176.792 1615.07 173.158 1615.07 M173.158 1611.37 Q178.968 1611.37 182.024 1615.98 Q185.102 1620.56 185.102 1629.31 Q185.102 1638.04 182.024 1642.64 Q178.968 1647.23 173.158 1647.23 Q167.348 1647.23 164.269 1642.64 Q161.213 1638.04 161.213 1629.31 Q161.213 1620.56 164.269 1615.98 Q167.348 1611.37 173.158 1611.37 Z" fill="#000000" fill-rule="evenodd" fill-opacity="1" /><path clip-path="url(#clip210)" d="M 0 0 M190.172 1640.67 L195.056 1640.67 L195.056 1646.55 L190.172 1646.55 L190.172 1640.67 Z" fill="#000000" fill-rule="evenodd" fill-opacity="1" /><path clip-path="url(#clip210)" d="M 0 0 M204.153 1642.62 L220.472 1642.62 L220.472 1646.55 L198.528 1646.55 L198.528 1642.62 Q201.19 1639.86 205.773 1635.23 Q210.38 1630.58 211.56 1629.24 Q213.806 1626.72 214.685 1624.98 Q215.588 1623.22 215.588 1621.53 Q215.588 1618.78 213.644 1617.04 Q211.722 1615.3 208.621 1615.3 Q206.422 1615.3 203.968 1616.07 Q201.537 1616.83 198.76 1618.38 L198.76 1613.66 Q201.584 1612.53 204.037 1611.95 Q206.491 1611.37 208.528 1611.37 Q213.898 1611.37 217.093 1614.05 Q220.287 1616.74 220.287 1621.23 Q220.287 1623.36 219.477 1625.28 Q218.69 1627.18 216.584 1629.77 Q216.005 1630.44 212.903 1633.66 Q209.801 1636.86 204.153 1642.62 Z" fill="#000000" fill-rule="evenodd" fill-opacity="1" /><path clip-path="url(#clip210)" d="M 0 0 M145.241 1246.21 L157.718 1246.21 L157.718 1250 L145.241 1250 L145.241 1246.21 Z" fill="#000000" fill-rule="evenodd" fill-opacity="1" /><path clip-path="url(#clip210)" d="M 0 0 M172.788 1229.61 Q169.176 1229.61 167.348 1233.17 Q165.542 1236.72 165.542 1243.84 Q165.542 1250.95 167.348 1254.52 Q169.176 1258.06 172.788 1258.06 Q176.422 1258.06 178.227 1254.52 Q180.056 1250.95 180.056 1243.84 Q180.056 1236.72 178.227 1233.17 Q176.422 1229.61 172.788 1229.61 M172.788 1225.91 Q178.598 1225.91 181.653 1230.51 Q184.732 1235.09 184.732 1243.84 Q184.732 1252.57 181.653 1257.18 Q178.598 1261.76 172.788 1261.76 Q166.977 1261.76 163.899 1257.18 Q160.843 1252.57 160.843 1243.84 Q160.843 1235.09 163.899 1230.51 Q166.977 1225.91 172.788 1225.91 Z" fill="#000000" fill-rule="evenodd" fill-opacity="1" /><path clip-path="url(#clip210)" d="M 0 0 M189.801 1255.21 L194.686 1255.21 L194.686 1261.09 L189.801 1261.09 L189.801 1255.21 Z" fill="#000000" fill-rule="evenodd" fill-opacity="1" /><path clip-path="url(#clip210)" d="M 0 0 M200.565 1257.16 L208.204 1257.16 L208.204 1230.79 L199.894 1232.46 L199.894 1228.2 L208.158 1226.53 L212.834 1226.53 L212.834 1257.16 L220.472 1257.16 L220.472 1261.09 L200.565 1261.09 L200.565 1257.16 Z" fill="#000000" fill-rule="evenodd" fill-opacity="1" /><path clip-path="url(#clip210)" d="M 0 0 M171.561 844.145 Q167.95 844.145 166.121 847.71 Q164.315 851.251 164.315 858.381 Q164.315 865.487 166.121 869.052 Q167.95 872.594 171.561 872.594 Q175.195 872.594 177 869.052 Q178.829 865.487 178.829 858.381 Q178.829 851.251 177 847.71 Q175.195 844.145 171.561 844.145 M171.561 840.441 Q177.371 840.441 180.426 845.048 Q183.505 849.631 183.505 858.381 Q183.505 867.108 180.426 871.714 Q177.371 876.297 171.561 876.297 Q165.751 876.297 162.672 871.714 Q159.616 867.108 159.616 858.381 Q159.616 849.631 162.672 845.048 Q165.751 840.441 171.561 840.441 Z" fill="#000000" fill-rule="evenodd" fill-opacity="1" /><path clip-path="url(#clip210)" d="M 0 0 M188.574 869.746 L193.459 869.746 L193.459 875.626 L188.574 875.626 L188.574 869.746 Z" fill="#000000" fill-rule="evenodd" fill-opacity="1" /><path clip-path="url(#clip210)" d="M 0 0 M208.528 844.145 Q204.917 844.145 203.088 847.71 Q201.283 851.251 201.283 858.381 Q201.283 865.487 203.088 869.052 Q204.917 872.594 208.528 872.594 Q212.162 872.594 213.968 869.052 Q215.797 865.487 215.797 858.381 Q215.797 851.251 213.968 847.71 Q212.162 844.145 208.528 844.145 M208.528 840.441 Q214.338 840.441 217.394 845.048 Q220.472 849.631 220.472 858.381 Q220.472 867.108 217.394 871.714 Q214.338 876.297 208.528 876.297 Q202.718 876.297 199.639 871.714 Q196.584 867.108 196.584 858.381 Q196.584 849.631 199.639 845.048 Q202.718 840.441 208.528 840.441 Z" fill="#000000" fill-rule="evenodd" fill-opacity="1" /><path clip-path="url(#clip210)" d="M 0 0 M172.788 458.681 Q169.176 458.681 167.348 462.245 Q165.542 465.787 165.542 472.917 Q165.542 480.023 167.348 483.588 Q169.176 487.13 172.788 487.13 Q176.422 487.13 178.227 483.588 Q180.056 480.023 180.056 472.917 Q180.056 465.787 178.227 462.245 Q176.422 458.681 172.788 458.681 M172.788 454.977 Q178.598 454.977 181.653 459.583 Q184.732 464.167 184.732 472.917 Q184.732 481.643 181.653 486.25 Q178.598 490.833 172.788 490.833 Q166.977 490.833 163.899 486.25 Q160.843 481.643 160.843 472.917 Q160.843 464.167 163.899 459.583 Q166.977 454.977 172.788 454.977 Z" fill="#000000" fill-rule="evenodd" fill-opacity="1" /><path clip-path="url(#clip210)" d="M 0 0 M189.801 484.282 L194.686 484.282 L194.686 490.162 L189.801 490.162 L189.801 484.282 Z" fill="#000000" fill-rule="evenodd" fill-opacity="1" /><path clip-path="url(#clip210)" d="M 0 0 M200.565 486.227 L208.204 486.227 L208.204 459.861 L199.894 461.528 L199.894 457.269 L208.158 455.602 L212.834 455.602 L212.834 486.227 L220.472 486.227 L220.472 490.162 L200.565 490.162 L200.565 486.227 Z" fill="#000000" fill-rule="evenodd" fill-opacity="1" /><path clip-path="url(#clip210)" d="M 0 0 M173.158 73.2165 Q169.547 73.2165 167.718 76.7813 Q165.913 80.3229 165.913 87.4525 Q165.913 94.559 167.718 98.1238 Q169.547 101.665 173.158 101.665 Q176.792 101.665 178.598 98.1238 Q180.426 94.559 180.426 87.4525 Q180.426 80.3229 178.598 76.7813 Q176.792 73.2165 173.158 73.2165 M173.158 69.5128 Q178.968 69.5128 182.024 74.1193 Q185.102 78.7026 185.102 87.4525 Q185.102 96.1793 182.024 100.786 Q178.968 105.369 173.158 105.369 Q167.348 105.369 164.269 100.786 Q161.213 96.1793 161.213 87.4525 Q161.213 78.7026 164.269 74.1193 Q167.348 69.5128 173.158 69.5128 Z" fill="#000000" fill-rule="evenodd" fill-opacity="1" /><path clip-path="url(#clip210)" d="M 0 0 M190.172 98.8182 L195.056 98.8182 L195.056 104.698 L190.172 104.698 L190.172 98.8182 Z" fill="#000000" fill-rule="evenodd" fill-opacity="1" /><path clip-path="url(#clip210)" d="M 0 0 M204.153 100.763 L220.472 100.763 L220.472 104.698 L198.528 104.698 L198.528 100.763 Q201.19 98.008 205.773 93.3784 Q210.38 88.7257 211.56 87.3831 Q213.806 84.8599 214.685 83.1238 Q215.588 81.3646 215.588 79.6748 Q215.588 76.9202 213.644 75.1841 Q211.722 73.448 208.621 73.448 Q206.422 73.448 203.968 74.2118 Q201.537 74.9757 198.76 76.5266 L198.76 71.8045 Q201.584 70.6702 204.037 70.0915 Q206.491 69.5128 208.528 69.5128 Q213.898 69.5128 217.093 72.198 Q220.287 74.8831 220.287 79.3739 Q220.287 81.5035 219.477 83.4248 Q218.69 85.3229 216.584 87.9155 Q216.005 88.5868 212.903 91.8043 Q209.801 94.9988 204.153 100.763 Z" fill="#000000" fill-rule="evenodd" fill-opacity="1" /><path clip-path="url(#clip210)" d="M 0 0 M1180.1 1854.16 L1180.1 1891.11 L1187.87 1891.11 Q1197.7 1891.11 1202.25 1886.65 Q1206.84 1882.2 1206.84 1872.58 Q1206.84 1863.04 1202.25 1858.61 Q1197.7 1854.16 1187.87 1854.16 L1180.1 1854.16 M1173.67 1848.87 L1186.88 1848.87 Q1200.69 1848.87 1207.16 1854.63 Q1213.62 1860.36 1213.62 1872.58 Q1213.62 1884.87 1207.12 1890.63 Q1200.63 1896.39 1186.88 1896.39 L1173.67 1896.39 L1173.67 1848.87 Z" fill="#000000" fill-rule="evenodd" fill-opacity="1" /><path clip-path="url(#clip210)" d="M 0 0 M1250.25 1877.1 L1250.25 1879.97 L1223.32 1879.97 Q1223.71 1886.02 1226.95 1889.2 Q1230.23 1892.35 1236.06 1892.35 Q1239.43 1892.35 1242.58 1891.52 Q1245.76 1890.69 1248.88 1889.04 L1248.88 1894.58 Q1245.73 1895.91 1242.42 1896.61 Q1239.11 1897.31 1235.71 1897.31 Q1227.18 1897.31 1222.18 1892.35 Q1217.21 1887.38 1217.21 1878.92 Q1217.21 1870.16 1221.92 1865.04 Q1226.67 1859.88 1234.69 1859.88 Q1241.88 1859.88 1246.05 1864.53 Q1250.25 1869.15 1250.25 1877.1 M1244.39 1875.38 Q1244.33 1870.58 1241.69 1867.71 Q1239.08 1864.85 1234.75 1864.85 Q1229.85 1864.85 1226.89 1867.62 Q1223.96 1870.39 1223.51 1875.42 L1244.39 1875.38 Z" fill="#000000" fill-rule="evenodd" fill-opacity="1" /><path clip-path="url(#clip210)" d="M 0 0 M1277.05 1866.22 Q1276.06 1865.65 1274.89 1865.39 Q1273.74 1865.1 1272.34 1865.1 Q1267.37 1865.1 1264.7 1868.35 Q1262.06 1871.57 1262.06 1877.61 L1262.06 1896.39 L1256.17 1896.39 L1256.17 1860.74 L1262.06 1860.74 L1262.06 1866.28 Q1263.91 1863.04 1266.87 1861.48 Q1269.83 1859.88 1274.06 1859.88 Q1274.66 1859.88 1275.4 1859.98 Q1276.13 1860.04 1277.02 1860.2 L1277.05 1866.22 Z" fill="#000000" fill-rule="evenodd" fill-opacity="1" /><path clip-path="url(#clip210)" d="M 0 0 M1283.19 1860.74 L1289.05 1860.74 L1289.05 1896.39 L1283.19 1896.39 L1283.19 1860.74 M1283.19 1846.87 L1289.05 1846.87 L1289.05 1854.28 L1283.19 1854.28 L1283.19 1846.87 Z" fill="#000000" fill-rule="evenodd" fill-opacity="1" /><path clip-path="url(#clip210)" d="M 0 0 M1290.99 1860.74 L1297.2 1860.74 L1308.34 1890.66 L1319.48 1860.74 L1325.68 1860.74 L1312.32 1896.39 L1304.36 1896.39 L1290.99 1860.74 Z" fill="#000000" fill-rule="evenodd" fill-opacity="1" /><path clip-path="url(#clip210)" d="M 0 0 M1362.32 1877.1 L1362.32 1879.97 L1335.39 1879.97 Q1335.77 1886.02 1339.02 1889.2 Q1342.3 1892.35 1348.12 1892.35 Q1351.5 1892.35 1354.65 1891.52 Q1357.83 1890.69 1360.95 1889.04 L1360.95 1894.58 Q1357.8 1895.91 1354.49 1896.61 Q1351.18 1897.31 1347.77 1897.31 Q1339.24 1897.31 1334.25 1892.35 Q1329.28 1887.38 1329.28 1878.92 Q1329.28 1870.16 1333.99 1865.04 Q1338.73 1859.88 1346.76 1859.88 Q1353.95 1859.88 1358.12 1864.53 Q1362.32 1869.15 1362.32 1877.1 M1356.46 1875.38 Q1356.4 1870.58 1353.76 1867.71 Q1351.15 1864.85 1346.82 1864.85 Q1341.92 1864.85 1338.96 1867.62 Q1336.03 1870.39 1335.58 1875.42 L1356.46 1875.38 Z" fill="#000000" fill-rule="evenodd" fill-opacity="1" /><path clip-path="url(#clip210)" d="M 0 0 M1391.92 1866.15 L1391.92 1846.87 L1397.78 1846.87 L1397.78 1896.39 L1391.92 1896.39 L1391.92 1891.04 Q1390.07 1894.23 1387.24 1895.79 Q1384.44 1897.31 1380.49 1897.31 Q1374.03 1897.31 1369.96 1892.16 Q1365.92 1887 1365.92 1878.6 Q1365.92 1870.2 1369.96 1865.04 Q1374.03 1859.88 1380.49 1859.88 Q1384.44 1859.88 1387.24 1861.44 Q1390.07 1862.97 1391.92 1866.15 M1371.96 1878.6 Q1371.96 1885.06 1374.61 1888.75 Q1377.28 1892.41 1381.93 1892.41 Q1386.57 1892.41 1389.25 1888.75 Q1391.92 1885.06 1391.92 1878.6 Q1391.92 1872.14 1389.25 1868.48 Q1386.57 1864.79 1381.93 1864.79 Q1377.28 1864.79 1374.61 1868.48 Q1371.96 1872.14 1371.96 1878.6 Z" fill="#000000" fill-rule="evenodd" fill-opacity="1" /><path clip-path="url(#clip210)" d="M 0 0 M1440.78 1855.21 L1432.06 1878.85 L1449.53 1878.85 L1440.78 1855.21 M1437.15 1848.87 L1444.44 1848.87 L1462.55 1896.39 L1455.86 1896.39 L1451.53 1884.2 L1430.11 1884.2 L1425.79 1896.39 L1419.01 1896.39 L1437.15 1848.87 Z" fill="#000000" fill-rule="evenodd" fill-opacity="1" /><path clip-path="url(#clip210)" d="M 0 0 M1468.69 1846.87 L1474.55 1846.87 L1474.55 1896.39 L1468.69 1896.39 L1468.69 1846.87 Z" fill="#000000" fill-rule="evenodd" fill-opacity="1" /><path clip-path="url(#clip210)" d="M 0 0 M1480.69 1846.87 L1486.55 1846.87 L1486.55 1896.39 L1480.69 1896.39 L1480.69 1846.87 Z" fill="#000000" fill-rule="evenodd" fill-opacity="1" /><path clip-path="url(#clip210)" d="M 0 0 M1523.18 1877.1 L1523.18 1879.97 L1496.25 1879.97 Q1496.64 1886.02 1499.88 1889.2 Q1503.16 1892.35 1508.99 1892.35 Q1512.36 1892.35 1515.51 1891.52 Q1518.69 1890.69 1521.81 1889.04 L1521.81 1894.58 Q1518.66 1895.91 1515.35 1896.61 Q1512.04 1897.31 1508.63 1897.31 Q1500.1 1897.31 1495.11 1892.35 Q1490.14 1887.38 1490.14 1878.92 Q1490.14 1870.16 1494.85 1865.04 Q1499.6 1859.88 1507.62 1859.88 Q1514.81 1859.88 1518.98 1864.53 Q1523.18 1869.15 1523.18 1877.1 M1517.32 1875.38 Q1517.26 1870.58 1514.62 1867.71 Q1512.01 1864.85 1507.68 1864.85 Q1502.78 1864.85 1499.82 1867.62 Q1496.89 1870.39 1496.44 1875.42 L1517.32 1875.38 Z" fill="#000000" fill-rule="evenodd" fill-opacity="1" /><path clip-path="url(#clip210)" d="M 0 0 M1529.32 1846.87 L1535.18 1846.87 L1535.18 1896.39 L1529.32 1896.39 L1529.32 1846.87 Z" fill="#000000" fill-rule="evenodd" fill-opacity="1" /><path clip-path="url(#clip210)" d="M 0 0 M1571.81 1877.1 L1571.81 1879.97 L1544.89 1879.97 Q1545.27 1886.02 1548.52 1889.2 Q1551.79 1892.35 1557.62 1892.35 Q1560.99 1892.35 1564.14 1891.52 Q1567.33 1890.69 1570.45 1889.04 L1570.45 1894.58 Q1567.29 1895.91 1563.98 1896.61 Q1560.67 1897.31 1557.27 1897.31 Q1548.74 1897.31 1543.74 1892.35 Q1538.78 1887.38 1538.78 1878.92 Q1538.78 1870.16 1543.49 1865.04 Q1548.23 1859.88 1556.25 1859.88 Q1563.44 1859.88 1567.61 1864.53 Q1571.81 1869.15 1571.81 1877.1 M1565.96 1875.38 Q1565.89 1870.58 1563.25 1867.71 Q1560.64 1864.85 1556.31 1864.85 Q1551.41 1864.85 1548.45 1867.62 Q1545.52 1870.39 1545.08 1875.42 L1565.96 1875.38 Z" fill="#000000" fill-rule="evenodd" fill-opacity="1" /><path clip-path="url(#clip210)" d="M 0 0 M1600.68 1861.79 L1600.68 1867.33 Q1598.2 1866.06 1595.53 1865.42 Q1592.85 1864.79 1589.99 1864.79 Q1585.63 1864.79 1583.43 1866.12 Q1581.27 1867.46 1581.27 1870.13 Q1581.27 1872.17 1582.83 1873.35 Q1584.39 1874.49 1589.1 1875.54 L1591.1 1875.99 Q1597.34 1877.33 1599.95 1879.78 Q1602.59 1882.2 1602.59 1886.56 Q1602.59 1891.52 1598.65 1894.42 Q1594.73 1897.31 1587.86 1897.31 Q1584.99 1897.31 1581.87 1896.74 Q1578.79 1896.2 1575.35 1895.09 L1575.35 1889.04 Q1578.59 1890.73 1581.75 1891.59 Q1584.9 1892.41 1587.98 1892.41 Q1592.12 1892.41 1594.35 1891.01 Q1596.58 1889.58 1596.58 1887 Q1596.58 1884.62 1594.95 1883.34 Q1593.36 1882.07 1587.92 1880.89 L1585.88 1880.41 Q1580.44 1879.27 1578.02 1876.91 Q1575.6 1874.53 1575.6 1870.39 Q1575.6 1865.36 1579.17 1862.62 Q1582.73 1859.88 1589.29 1859.88 Q1592.53 1859.88 1595.4 1860.36 Q1598.26 1860.84 1600.68 1861.79 Z" fill="#000000" fill-rule="evenodd" fill-opacity="1" /><path clip-path="url(#clip210)" d="M 0 0 M1665.3 1852.53 L1665.3 1859.31 Q1662.05 1856.29 1658.36 1854.79 Q1654.7 1853.3 1650.56 1853.3 Q1642.41 1853.3 1638.08 1858.29 Q1633.75 1863.26 1633.75 1872.68 Q1633.75 1882.07 1638.08 1887.07 Q1642.41 1892.03 1650.56 1892.03 Q1654.7 1892.03 1658.36 1890.54 Q1662.05 1889.04 1665.3 1886.02 L1665.3 1892.73 Q1661.92 1895.02 1658.13 1896.17 Q1654.38 1897.31 1650.18 1897.31 Q1639.39 1897.31 1633.18 1890.73 Q1626.97 1884.11 1626.97 1872.68 Q1626.97 1861.22 1633.18 1854.63 Q1639.39 1848.01 1650.18 1848.01 Q1654.44 1848.01 1658.2 1849.16 Q1661.98 1850.27 1665.3 1852.53 Z" fill="#000000" fill-rule="evenodd" fill-opacity="1" /><path clip-path="url(#clip210)" d="M 0 0 M1685.25 1864.85 Q1680.54 1864.85 1677.8 1868.54 Q1675.07 1872.2 1675.07 1878.6 Q1675.07 1885 1677.77 1888.69 Q1680.51 1892.35 1685.25 1892.35 Q1689.93 1892.35 1692.67 1888.66 Q1695.4 1884.97 1695.4 1878.6 Q1695.4 1872.27 1692.67 1868.57 Q1689.93 1864.85 1685.25 1864.85 M1685.25 1859.88 Q1692.89 1859.88 1697.25 1864.85 Q1701.61 1869.81 1701.61 1878.6 Q1701.61 1887.35 1697.25 1892.35 Q1692.89 1897.31 1685.25 1897.31 Q1677.58 1897.31 1673.22 1892.35 Q1668.89 1887.35 1668.89 1878.6 Q1668.89 1869.81 1673.22 1864.85 Q1677.58 1859.88 1685.25 1859.88 Z" fill="#000000" fill-rule="evenodd" fill-opacity="1" /><path clip-path="url(#clip210)" d="M 0 0 M1707.15 1882.32 L1707.15 1860.74 L1713.01 1860.74 L1713.01 1882.1 Q1713.01 1887.16 1714.98 1889.71 Q1716.95 1892.22 1720.9 1892.22 Q1725.64 1892.22 1728.38 1889.2 Q1731.15 1886.17 1731.15 1880.95 L1731.15 1860.74 L1737 1860.74 L1737 1896.39 L1731.15 1896.39 L1731.15 1890.92 Q1729.02 1894.16 1726.18 1895.75 Q1723.38 1897.31 1719.66 1897.31 Q1713.52 1897.31 1710.33 1893.5 Q1707.15 1889.68 1707.15 1882.32 M1721.89 1859.88 L1721.89 1859.88 Z" fill="#000000" fill-rule="evenodd" fill-opacity="1" /><path clip-path="url(#clip210)" d="M 0 0 M1772.78 1874.88 L1772.78 1896.39 L1766.92 1896.39 L1766.92 1875.07 Q1766.92 1870.01 1764.95 1867.49 Q1762.98 1864.98 1759.03 1864.98 Q1754.29 1864.98 1751.55 1868 Q1748.81 1871.02 1748.81 1876.24 L1748.81 1896.39 L1742.92 1896.39 L1742.92 1860.74 L1748.81 1860.74 L1748.81 1866.28 Q1750.91 1863.07 1753.75 1861.48 Q1756.61 1859.88 1760.34 1859.88 Q1766.48 1859.88 1769.63 1863.7 Q1772.78 1867.49 1772.78 1874.88 Z" fill="#000000" fill-rule="evenodd" fill-opacity="1" /><path clip-path="url(#clip210)" d="M 0 0 M1784.72 1850.62 L1784.72 1860.74 L1796.78 1860.74 L1796.78 1865.3 L1784.72 1865.3 L1784.72 1884.65 Q1784.72 1889.01 1785.89 1890.25 Q1787.1 1891.49 1790.76 1891.49 L1796.78 1891.49 L1796.78 1896.39 L1790.76 1896.39 Q1783.98 1896.39 1781.41 1893.88 Q1778.83 1891.33 1778.83 1884.65 L1778.83 1865.3 L1774.53 1865.3 L1774.53 1860.74 L1778.83 1860.74 L1778.83 1850.62 L1784.72 1850.62 Z" fill="#000000" fill-rule="evenodd" fill-opacity="1" /><path clip-path="url(#clip210)" d="M 0 0 M1825.65 1861.79 L1825.65 1867.33 Q1823.16 1866.06 1820.49 1865.42 Q1817.82 1864.79 1814.95 1864.79 Q1810.59 1864.79 1808.4 1866.12 Q1806.23 1867.46 1806.23 1870.13 Q1806.23 1872.17 1807.79 1873.35 Q1809.35 1874.49 1814.06 1875.54 L1816.07 1875.99 Q1822.31 1877.33 1824.92 1879.78 Q1827.56 1882.2 1827.56 1886.56 Q1827.56 1891.52 1823.61 1894.42 Q1819.7 1897.31 1812.82 1897.31 Q1809.96 1897.31 1806.84 1896.74 Q1803.75 1896.2 1800.31 1895.09 L1800.31 1889.04 Q1803.56 1890.73 1806.71 1891.59 Q1809.86 1892.41 1812.95 1892.41 Q1817.09 1892.41 1819.31 1891.01 Q1821.54 1889.58 1821.54 1887 Q1821.54 1884.62 1819.92 1883.34 Q1818.33 1882.07 1812.88 1880.89 L1810.85 1880.41 Q1805.4 1879.27 1802.99 1876.91 Q1800.57 1874.53 1800.57 1870.39 Q1800.57 1865.36 1804.13 1862.62 Q1807.7 1859.88 1814.25 1859.88 Q1817.5 1859.88 1820.36 1860.36 Q1823.23 1860.84 1825.65 1861.79 Z" fill="#000000" fill-rule="evenodd" fill-opacity="1" /><path clip-path="url(#clip210)" d="M 0 0 M86.4027 898.182 L79.0503 899.582 Q71.5069 901.015 71.5069 906.68 Q71.5069 910.945 75.0081 912.887 Q79.4004 915.337 85.1932 915.337 Q92.1955 915.337 95.5375 912.95 Q98.9431 910.531 98.9431 906.68 Q98.9431 902.415 92.1637 900.123 L86.4027 898.182 M76.6632 894.904 L67.3374 891.752 L67.3374 886.533 L86.6573 893.057 L93.6278 891.784 Q95.1874 891.498 96.4923 890.384 Q98.0201 889.079 98.0201 888.06 L98.0201 885.259 L102.985 885.259 L102.985 888.761 Q102.985 891.752 100.312 894.426 Q98.975 895.731 96.1741 896.272 Q99.707 897.736 102.476 900.728 Q103.781 902.129 103.781 906.68 Q103.781 914.16 98.9431 917.788 Q93.9461 921.512 85.1932 921.512 Q75.8356 921.512 71.4433 917.47 Q66.5417 912.982 66.5417 906.68 Q66.5417 896.781 76.6632 894.904 Z" fill="#000000" fill-rule="evenodd" fill-opacity="1" /><polyline clip-path="url(#clip212)" style="stroke:#4477aa; stroke-width:4; stroke-opacity:1; fill:none" points="
  319.348,1711.07 740.124,1238.61 986.262,1036.51 1160.9,917.342 1296.36,835.11 1407.04,773.396 1500.61,724.62 1581.67,684.705 1653.17,651.221 1717.13,622.61 
  1774.99,597.819 1827.81,576.107 1876.4,556.933 1921.39,539.893 1963.27,524.677 2002.45,511.045 2039.25,498.808 2073.95,487.813 2106.77,477.941 2137.91,469.094 
  2167.53,461.192 2195.77,454.173 2222.75,447.986 2248.59,442.593 2273.37,437.964 2297.18,434.08 2320.09,430.927 2342.16,428.502 2363.47,426.807 2384.05,425.853 
  2403.95,425.659 2423.23,426.25 2441.91,427.662 2460.03,429.94 2477.62,433.141 2494.73,437.331 2511.36,442.593 2527.55,449.027 2543.32,456.749 2558.68,465.902 
  2573.67,476.653 2588.3,489.201 2602.59,503.786 2616.54,520.692 2630.18,540.262 2643.53,562.904 2656.58,589.113 2669.36,619.48 2681.88,654.719 
  "/>
<circle clip-path="url(#clip212)" cx="319.348" cy="1711.07" r="21" fill="#4477aa" fill-rule="evenodd" fill-opacity="1" stroke="#000000" stroke-opacity="1" stroke-width="0"/>
<circle clip-path="url(#clip212)" cx="740.124" cy="1238.61" r="21" fill="#4477aa" fill-rule="evenodd" fill-opacity="1" stroke="#000000" stroke-opacity="1" stroke-width="0"/>
<circle clip-path="url(#clip212)" cx="986.262" cy="1036.51" r="21" fill="#4477aa" fill-rule="evenodd" fill-opacity="1" stroke="#000000" stroke-opacity="1" stroke-width="0"/>
<circle clip-path="url(#clip212)" cx="1160.9" cy="917.342" r="21" fill="#4477aa" fill-rule="evenodd" fill-opacity="1" stroke="#000000" stroke-opacity="1" stroke-width="0"/>
<circle clip-path="url(#clip212)" cx="1296.36" cy="835.11" r="21" fill="#4477aa" fill-rule="evenodd" fill-opacity="1" stroke="#000000" stroke-opacity="1" stroke-width="0"/>
<circle clip-path="url(#clip212)" cx="1407.04" cy="773.396" r="21" fill="#4477aa" fill-rule="evenodd" fill-opacity="1" stroke="#000000" stroke-opacity="1" stroke-width="0"/>
<circle clip-path="url(#clip212)" cx="1500.61" cy="724.62" r="21" fill="#4477aa" fill-rule="evenodd" fill-opacity="1" stroke="#000000" stroke-opacity="1" stroke-width="0"/>
<circle clip-path="url(#clip212)" cx="1581.67" cy="684.705" r="21" fill="#4477aa" fill-rule="evenodd" fill-opacity="1" stroke="#000000" stroke-opacity="1" stroke-width="0"/>
<circle clip-path="url(#clip212)" cx="1653.17" cy="651.221" r="21" fill="#4477aa" fill-rule="evenodd" fill-opacity="1" stroke="#000000" stroke-opacity="1" stroke-width="0"/>
<circle clip-path="url(#clip212)" cx="1717.13" cy="622.61" r="21" fill="#4477aa" fill-rule="evenodd" fill-opacity="1" stroke="#000000" stroke-opacity="1" stroke-width="0"/>
<circle clip-path="url(#clip212)" cx="1774.99" cy="597.819" r="21" fill="#4477aa" fill-rule="evenodd" fill-opacity="1" stroke="#000000" stroke-opacity="1" stroke-width="0"/>
<circle clip-path="url(#clip212)" cx="1827.81" cy="576.107" r="21" fill="#4477aa" fill-rule="evenodd" fill-opacity="1" stroke="#000000" stroke-opacity="1" stroke-width="0"/>
<circle clip-path="url(#clip212)" cx="1876.4" cy="556.933" r="21" fill="#4477aa" fill-rule="evenodd" fill-opacity="1" stroke="#000000" stroke-opacity="1" stroke-width="0"/>
<circle clip-path="url(#clip212)" cx="1921.39" cy="539.893" r="21" fill="#4477aa" fill-rule="evenodd" fill-opacity="1" stroke="#000000" stroke-opacity="1" stroke-width="0"/>
<circle clip-path="url(#clip212)" cx="1963.27" cy="524.677" r="21" fill="#4477aa" fill-rule="evenodd" fill-opacity="1" stroke="#000000" stroke-opacity="1" stroke-width="0"/>
<circle clip-path="url(#clip212)" cx="2002.45" cy="511.045" r="21" fill="#4477aa" fill-rule="evenodd" fill-opacity="1" stroke="#000000" stroke-opacity="1" stroke-width="0"/>
<circle clip-path="url(#clip212)" cx="2039.25" cy="498.808" r="21" fill="#4477aa" fill-rule="evenodd" fill-opacity="1" stroke="#000000" stroke-opacity="1" stroke-width="0"/>
<circle clip-path="url(#clip212)" cx="2073.95" cy="487.813" r="21" fill="#4477aa" fill-rule="evenodd" fill-opacity="1" stroke="#000000" stroke-opacity="1" stroke-width="0"/>
<circle clip-path="url(#clip212)" cx="2106.77" cy="477.941" r="21" fill="#4477aa" fill-rule="evenodd" fill-opacity="1" stroke="#000000" stroke-opacity="1" stroke-width="0"/>
<circle clip-path="url(#clip212)" cx="2137.91" cy="469.094" r="21" fill="#4477aa" fill-rule="evenodd" fill-opacity="1" stroke="#000000" stroke-opacity="1" stroke-width="0"/>
<circle clip-path="url(#clip212)" cx="2167.53" cy="461.192" r="21" fill="#4477aa" fill-rule="evenodd" fill-opacity="1" stroke="#000000" stroke-opacity="1" stroke-width="0"/>
<circle clip-path="url(#clip212)" cx="2195.77" cy="454.173" r="21" fill="#4477aa" fill-rule="evenodd" fill-opacity="1" stroke="#000000" stroke-opacity="1" stroke-width="0"/>
<circle clip-path="url(#clip212)" cx="2222.75" cy="447.986" r="21" fill="#4477aa" fill-rule="evenodd" fill-opacity="1" stroke="#000000" stroke-opacity="1" stroke-width="0"/>
<circle clip-path="url(#clip212)" cx="2248.59" cy="442.593" r="21" fill="#4477aa" fill-rule="evenodd" fill-opacity="1" stroke="#000000" stroke-opacity="1" stroke-width="0"/>
<circle clip-path="url(#clip212)" cx="2273.37" cy="437.964" r="21" fill="#4477aa" fill-rule="evenodd" fill-opacity="1" stroke="#000000" stroke-opacity="1" stroke-width="0"/>
<circle clip-path="url(#clip212)" cx="2297.18" cy="434.08" r="21" fill="#4477aa" fill-rule="evenodd" fill-opacity="1" stroke="#000000" stroke-opacity="1" stroke-width="0"/>
<circle clip-path="url(#clip212)" cx="2320.09" cy="430.927" r="21" fill="#4477aa" fill-rule="evenodd" fill-opacity="1" stroke="#000000" stroke-opacity="1" stroke-width="0"/>
<circle clip-path="url(#clip212)" cx="2342.16" cy="428.502" r="21" fill="#4477aa" fill-rule="evenodd" fill-opacity="1" stroke="#000000" stroke-opacity="1" stroke-width="0"/>
<circle clip-path="url(#clip212)" cx="2363.47" cy="426.807" r="21" fill="#4477aa" fill-rule="evenodd" fill-opacity="1" stroke="#000000" stroke-opacity="1" stroke-width="0"/>
<circle clip-path="url(#clip212)" cx="2384.05" cy="425.853" r="21" fill="#4477aa" fill-rule="evenodd" fill-opacity="1" stroke="#000000" stroke-opacity="1" stroke-width="0"/>
<circle clip-path="url(#clip212)" cx="2403.95" cy="425.659" r="21" fill="#4477aa" fill-rule="evenodd" fill-opacity="1" stroke="#000000" stroke-opacity="1" stroke-width="0"/>
<circle clip-path="url(#clip212)" cx="2423.23" cy="426.25" r="21" fill="#4477aa" fill-rule="evenodd" fill-opacity="1" stroke="#000000" stroke-opacity="1" stroke-width="0"/>
<circle clip-path="url(#clip212)" cx="2441.91" cy="427.662" r="21" fill="#4477aa" fill-rule="evenodd" fill-opacity="1" stroke="#000000" stroke-opacity="1" stroke-width="0"/>
<circle clip-path="url(#clip212)" cx="2460.03" cy="429.94" r="21" fill="#4477aa" fill-rule="evenodd" fill-opacity="1" stroke="#000000" stroke-opacity="1" stroke-width="0"/>
<circle clip-path="url(#clip212)" cx="2477.62" cy="433.141" r="21" fill="#4477aa" fill-rule="evenodd" fill-opacity="1" stroke="#000000" stroke-opacity="1" stroke-width="0"/>
<circle clip-path="url(#clip212)" cx="2494.73" cy="437.331" r="21" fill="#4477aa" fill-rule="evenodd" fill-opacity="1" stroke="#000000" stroke-opacity="1" stroke-width="0"/>
<circle clip-path="url(#clip212)" cx="2511.36" cy="442.593" r="21" fill="#4477aa" fill-rule="evenodd" fill-opacity="1" stroke="#000000" stroke-opacity="1" stroke-width="0"/>
<circle clip-path="url(#clip212)" cx="2527.55" cy="449.027" r="21" fill="#4477aa" fill-rule="evenodd" fill-opacity="1" stroke="#000000" stroke-opacity="1" stroke-width="0"/>
<circle clip-path="url(#clip212)" cx="2543.32" cy="456.749" r="21" fill="#4477aa" fill-rule="evenodd" fill-opacity="1" stroke="#000000" stroke-opacity="1" stroke-width="0"/>
<circle clip-path="url(#clip212)" cx="2558.68" cy="465.902" r="21" fill="#4477aa" fill-rule="evenodd" fill-opacity="1" stroke="#000000" stroke-opacity="1" stroke-width="0"/>
<circle clip-path="url(#clip212)" cx="2573.67" cy="476.653" r="21" fill="#4477aa" fill-rule="evenodd" fill-opacity="1" stroke="#000000" stroke-opacity="1" stroke-width="0"/>
<circle clip-path="url(#clip212)" cx="2588.3" cy="489.201" r="21" fill="#4477aa" fill-rule="evenodd" fill-opacity="1" stroke="#000000" stroke-opacity="1" stroke-width="0"/>
<circle clip-path="url(#clip212)" cx="2602.59" cy="503.786" r="21" fill="#4477aa" fill-rule="evenodd" fill-opacity="1" stroke="#000000" stroke-opacity="1" stroke-width="0"/>
<circle clip-path="url(#clip212)" cx="2616.54" cy="520.692" r="21" fill="#4477aa" fill-rule="evenodd" fill-opacity="1" stroke="#000000" stroke-opacity="1" stroke-width="0"/>
<circle clip-path="url(#clip212)" cx="2630.18" cy="540.262" r="21" fill="#4477aa" fill-rule="evenodd" fill-opacity="1" stroke="#000000" stroke-opacity="1" stroke-width="0"/>
<circle clip-path="url(#clip212)" cx="2643.53" cy="562.904" r="21" fill="#4477aa" fill-rule="evenodd" fill-opacity="1" stroke="#000000" stroke-opacity="1" stroke-width="0"/>
<circle clip-path="url(#clip212)" cx="2656.58" cy="589.113" r="21" fill="#4477aa" fill-rule="evenodd" fill-opacity="1" stroke="#000000" stroke-opacity="1" stroke-width="0"/>
<circle clip-path="url(#clip212)" cx="2669.36" cy="619.48" r="21" fill="#4477aa" fill-rule="evenodd" fill-opacity="1" stroke="#000000" stroke-opacity="1" stroke-width="0"/>
<circle clip-path="url(#clip212)" cx="2681.88" cy="654.719" r="21" fill="#4477aa" fill-rule="evenodd" fill-opacity="1" stroke="#000000" stroke-opacity="1" stroke-width="0"/>
<polyline clip-path="url(#clip212)" style="stroke:#ee6677; stroke-width:4; stroke-opacity:1; fill:none" points="
  319.348,1644.2 740.124,1164.16 986.262,956.385 1160.9,832.353 1296.36,745.677 1407.04,679.764 1500.61,626.939 1581.67,583.061 1653.17,545.658 1717.13,513.142 
  1774.99,484.435 1827.81,458.775 1876.4,435.603 1921.39,414.499 1963.27,395.139 2002.45,377.268 2039.25,360.683 2073.95,345.217 2106.77,330.735 2137.91,317.125 
  2167.53,304.29 2195.77,292.15 2222.75,280.638 2248.59,269.692 2273.37,259.263 2297.18,249.305 2320.09,239.779 2342.16,230.651 2363.47,221.888 2384.05,213.465 
  2403.95,205.357 2423.23,197.541 2441.91,189.999 2460.03,182.712 2477.62,175.664 2494.73,168.84 2511.36,162.227 2527.55,155.813 2543.32,149.586 2558.68,143.536 
  2573.67,137.654 2588.3,131.931 2602.59,126.358 2616.54,120.929 2630.18,115.636 2643.53,110.473 2656.58,105.433 2669.36,100.512 2681.88,95.7049 
  "/>
<circle clip-path="url(#clip212)" cx="319.348" cy="1644.2" r="21" fill="#ee6677" fill-rule="evenodd" fill-opacity="1" stroke="#000000" stroke-opacity="1" stroke-width="0"/>
<circle clip-path="url(#clip212)" cx="740.124" cy="1164.16" r="21" fill="#ee6677" fill-rule="evenodd" fill-opacity="1" stroke="#000000" stroke-opacity="1" stroke-width="0"/>
<circle clip-path="url(#clip212)" cx="986.262" cy="956.385" r="21" fill="#ee6677" fill-rule="evenodd" fill-opacity="1" stroke="#000000" stroke-opacity="1" stroke-width="0"/>
<circle clip-path="url(#clip212)" cx="1160.9" cy="832.353" r="21" fill="#ee6677" fill-rule="evenodd" fill-opacity="1" stroke="#000000" stroke-opacity="1" stroke-width="0"/>
<circle clip-path="url(#clip212)" cx="1296.36" cy="745.677" r="21" fill="#ee6677" fill-rule="evenodd" fill-opacity="1" stroke="#000000" stroke-opacity="1" stroke-width="0"/>
<circle clip-path="url(#clip212)" cx="1407.04" cy="679.764" r="21" fill="#ee6677" fill-rule="evenodd" fill-opacity="1" stroke="#000000" stroke-opacity="1" stroke-width="0"/>
<circle clip-path="url(#clip212)" cx="1500.61" cy="626.939" r="21" fill="#ee6677" fill-rule="evenodd" fill-opacity="1" stroke="#000000" stroke-opacity="1" stroke-width="0"/>
<circle clip-path="url(#clip212)" cx="1581.67" cy="583.061" r="21" fill="#ee6677" fill-rule="evenodd" fill-opacity="1" stroke="#000000" stroke-opacity="1" stroke-width="0"/>
<circle clip-path="url(#clip212)" cx="1653.17" cy="545.658" r="21" fill="#ee6677" fill-rule="evenodd" fill-opacity="1" stroke="#000000" stroke-opacity="1" stroke-width="0"/>
<circle clip-path="url(#clip212)" cx="1717.13" cy="513.142" r="21" fill="#ee6677" fill-rule="evenodd" fill-opacity="1" stroke="#000000" stroke-opacity="1" stroke-width="0"/>
<circle clip-path="url(#clip212)" cx="1774.99" cy="484.435" r="21" fill="#ee6677" fill-rule="evenodd" fill-opacity="1" stroke="#000000" stroke-opacity="1" stroke-width="0"/>
<circle clip-path="url(#clip212)" cx="1827.81" cy="458.775" r="21" fill="#ee6677" fill-rule="evenodd" fill-opacity="1" stroke="#000000" stroke-opacity="1" stroke-width="0"/>
<circle clip-path="url(#clip212)" cx="1876.4" cy="435.603" r="21" fill="#ee6677" fill-rule="evenodd" fill-opacity="1" stroke="#000000" stroke-opacity="1" stroke-width="0"/>
<circle clip-path="url(#clip212)" cx="1921.39" cy="414.499" r="21" fill="#ee6677" fill-rule="evenodd" fill-opacity="1" stroke="#000000" stroke-opacity="1" stroke-width="0"/>
<circle clip-path="url(#clip212)" cx="1963.27" cy="395.139" r="21" fill="#ee6677" fill-rule="evenodd" fill-opacity="1" stroke="#000000" stroke-opacity="1" stroke-width="0"/>
<circle clip-path="url(#clip212)" cx="2002.45" cy="377.268" r="21" fill="#ee6677" fill-rule="evenodd" fill-opacity="1" stroke="#000000" stroke-opacity="1" stroke-width="0"/>
<circle clip-path="url(#clip212)" cx="2039.25" cy="360.683" r="21" fill="#ee6677" fill-rule="evenodd" fill-opacity="1" stroke="#000000" stroke-opacity="1" stroke-width="0"/>
<circle clip-path="url(#clip212)" cx="2073.95" cy="345.217" r="21" fill="#ee6677" fill-rule="evenodd" fill-opacity="1" stroke="#000000" stroke-opacity="1" stroke-width="0"/>
<circle clip-path="url(#clip212)" cx="2106.77" cy="330.735" r="21" fill="#ee6677" fill-rule="evenodd" fill-opacity="1" stroke="#000000" stroke-opacity="1" stroke-width="0"/>
<circle clip-path="url(#clip212)" cx="2137.91" cy="317.125" r="21" fill="#ee6677" fill-rule="evenodd" fill-opacity="1" stroke="#000000" stroke-opacity="1" stroke-width="0"/>
<circle clip-path="url(#clip212)" cx="2167.53" cy="304.29" r="21" fill="#ee6677" fill-rule="evenodd" fill-opacity="1" stroke="#000000" stroke-opacity="1" stroke-width="0"/>
<circle clip-path="url(#clip212)" cx="2195.77" cy="292.15" r="21" fill="#ee6677" fill-rule="evenodd" fill-opacity="1" stroke="#000000" stroke-opacity="1" stroke-width="0"/>
<circle clip-path="url(#clip212)" cx="2222.75" cy="280.638" r="21" fill="#ee6677" fill-rule="evenodd" fill-opacity="1" stroke="#000000" stroke-opacity="1" stroke-width="0"/>
<circle clip-path="url(#clip212)" cx="2248.59" cy="269.692" r="21" fill="#ee6677" fill-rule="evenodd" fill-opacity="1" stroke="#000000" stroke-opacity="1" stroke-width="0"/>
<circle clip-path="url(#clip212)" cx="2273.37" cy="259.263" r="21" fill="#ee6677" fill-rule="evenodd" fill-opacity="1" stroke="#000000" stroke-opacity="1" stroke-width="0"/>
<circle clip-path="url(#clip212)" cx="2297.18" cy="249.305" r="21" fill="#ee6677" fill-rule="evenodd" fill-opacity="1" stroke="#000000" stroke-opacity="1" stroke-width="0"/>
<circle clip-path="url(#clip212)" cx="2320.09" cy="239.779" r="21" fill="#ee6677" fill-rule="evenodd" fill-opacity="1" stroke="#000000" stroke-opacity="1" stroke-width="0"/>
<circle clip-path="url(#clip212)" cx="2342.16" cy="230.651" r="21" fill="#ee6677" fill-rule="evenodd" fill-opacity="1" stroke="#000000" stroke-opacity="1" stroke-width="0"/>
<circle clip-path="url(#clip212)" cx="2363.47" cy="221.888" r="21" fill="#ee6677" fill-rule="evenodd" fill-opacity="1" stroke="#000000" stroke-opacity="1" stroke-width="0"/>
<circle clip-path="url(#clip212)" cx="2384.05" cy="213.465" r="21" fill="#ee6677" fill-rule="evenodd" fill-opacity="1" stroke="#000000" stroke-opacity="1" stroke-width="0"/>
<circle clip-path="url(#clip212)" cx="2403.95" cy="205.357" r="21" fill="#ee6677" fill-rule="evenodd" fill-opacity="1" stroke="#000000" stroke-opacity="1" stroke-width="0"/>
<circle clip-path="url(#clip212)" cx="2423.23" cy="197.541" r="21" fill="#ee6677" fill-rule="evenodd" fill-opacity="1" stroke="#000000" stroke-opacity="1" stroke-width="0"/>
<circle clip-path="url(#clip212)" cx="2441.91" cy="189.999" r="21" fill="#ee6677" fill-rule="evenodd" fill-opacity="1" stroke="#000000" stroke-opacity="1" stroke-width="0"/>
<circle clip-path="url(#clip212)" cx="2460.03" cy="182.712" r="21" fill="#ee6677" fill-rule="evenodd" fill-opacity="1" stroke="#000000" stroke-opacity="1" stroke-width="0"/>
<circle clip-path="url(#clip212)" cx="2477.62" cy="175.664" r="21" fill="#ee6677" fill-rule="evenodd" fill-opacity="1" stroke="#000000" stroke-opacity="1" stroke-width="0"/>
<circle clip-path="url(#clip212)" cx="2494.73" cy="168.84" r="21" fill="#ee6677" fill-rule="evenodd" fill-opacity="1" stroke="#000000" stroke-opacity="1" stroke-width="0"/>
<circle clip-path="url(#clip212)" cx="2511.36" cy="162.227" r="21" fill="#ee6677" fill-rule="evenodd" fill-opacity="1" stroke="#000000" stroke-opacity="1" stroke-width="0"/>
<circle clip-path="url(#clip212)" cx="2527.55" cy="155.813" r="21" fill="#ee6677" fill-rule="evenodd" fill-opacity="1" stroke="#000000" stroke-opacity="1" stroke-width="0"/>
<circle clip-path="url(#clip212)" cx="2543.32" cy="149.586" r="21" fill="#ee6677" fill-rule="evenodd" fill-opacity="1" stroke="#000000" stroke-opacity="1" stroke-width="0"/>
<circle clip-path="url(#clip212)" cx="2558.68" cy="143.536" r="21" fill="#ee6677" fill-rule="evenodd" fill-opacity="1" stroke="#000000" stroke-opacity="1" stroke-width="0"/>
<circle clip-path="url(#clip212)" cx="2573.67" cy="137.654" r="21" fill="#ee6677" fill-rule="evenodd" fill-opacity="1" stroke="#000000" stroke-opacity="1" stroke-width="0"/>
<circle clip-path="url(#clip212)" cx="2588.3" cy="131.931" r="21" fill="#ee6677" fill-rule="evenodd" fill-opacity="1" stroke="#000000" stroke-opacity="1" stroke-width="0"/>
<circle clip-path="url(#clip212)" cx="2602.59" cy="126.358" r="21" fill="#ee6677" fill-rule="evenodd" fill-opacity="1" stroke="#000000" stroke-opacity="1" stroke-width="0"/>
<circle clip-path="url(#clip212)" cx="2616.54" cy="120.929" r="21" fill="#ee6677" fill-rule="evenodd" fill-opacity="1" stroke="#000000" stroke-opacity="1" stroke-width="0"/>
<circle clip-path="url(#clip212)" cx="2630.18" cy="115.636" r="21" fill="#ee6677" fill-rule="evenodd" fill-opacity="1" stroke="#000000" stroke-opacity="1" stroke-width="0"/>
<circle clip-path="url(#clip212)" cx="2643.53" cy="110.473" r="21" fill="#ee6677" fill-rule="evenodd" fill-opacity="1" stroke="#000000" stroke-opacity="1" stroke-width="0"/>
<circle clip-path="url(#clip212)" cx="2656.58" cy="105.433" r="21" fill="#ee6677" fill-rule="evenodd" fill-opacity="1" stroke="#000000" stroke-opacity="1" stroke-width="0"/>
<circle clip-path="url(#clip212)" cx="2669.36" cy="100.512" r="21" fill="#ee6677" fill-rule="evenodd" fill-opacity="1" stroke="#000000" stroke-opacity="1" stroke-width="0"/>
<circle clip-path="url(#clip212)" cx="2681.88" cy="95.7049" r="21" fill="#ee6677" fill-rule="evenodd" fill-opacity="1" stroke="#000000" stroke-opacity="1" stroke-width="0"/>
<path clip-path="url(#clip210)" d="
M1940.31 1591.53 L2668.76 1591.53 L2668.76 1410.09 L1940.31 1410.09  Z
  " fill="#ffffff" fill-rule="evenodd" fill-opacity="0.9"/>
<polyline clip-path="url(#clip210)" style="stroke:#222255; stroke-width:4; stroke-opacity:0.1; fill:none" points="
  1940.31,1591.53 2668.76,1591.53 2668.76,1410.09 1940.31,1410.09 1940.31,1591.53 
  "/>
<polyline clip-path="url(#clip210)" style="stroke:#4477aa; stroke-width:4; stroke-opacity:1; fill:none" points="
  1968.31,1470.57 2136.31,1470.57 
  "/>
<circle clip-path="url(#clip210)" cx="2066.31" cy="1470.57" r="23" fill="#4477aa" fill-rule="evenodd" fill-opacity="1" stroke="#000000" stroke-opacity="1" stroke-width="0"/>
<path clip-path="url(#clip210)" d="M 0 0 M2180.14 1457.89 L2173.8 1475.09 L2186.51 1475.09 L2180.14 1457.89 M2177.5 1453.29 L2182.8 1453.29 L2195.98 1487.85 L2191.11 1487.85 L2187.97 1478.98 L2172.39 1478.98 L2169.24 1487.85 L2164.31 1487.85 L2177.5 1453.29 Z" fill="#000000" fill-rule="evenodd" fill-opacity="1" /><path clip-path="url(#clip210)" d="M 0 0 M2200.44 1451.83 L2204.7 1451.83 L2204.7 1487.85 L2200.44 1487.85 L2200.44 1451.83 Z" fill="#000000" fill-rule="evenodd" fill-opacity="1" /><path clip-path="url(#clip210)" d="M 0 0 M2209.17 1451.83 L2213.43 1451.83 L2213.43 1487.85 L2209.17 1487.85 L2209.17 1451.83 Z" fill="#000000" fill-rule="evenodd" fill-opacity="1" /><path clip-path="url(#clip210)" d="M 0 0 M2244.75 1474.82 Q2239.59 1474.82 2237.6 1476 Q2235.61 1477.18 2235.61 1480.02 Q2235.61 1482.29 2237.09 1483.63 Q2238.59 1484.95 2241.16 1484.95 Q2244.7 1484.95 2246.83 1482.45 Q2248.98 1479.93 2248.98 1475.76 L2248.98 1474.82 L2244.75 1474.82 M2253.24 1473.06 L2253.24 1487.85 L2248.98 1487.85 L2248.98 1483.91 Q2247.53 1486.27 2245.35 1487.41 Q2243.17 1488.52 2240.03 1488.52 Q2236.04 1488.52 2233.68 1486.3 Q2231.35 1484.05 2231.35 1480.3 Q2231.35 1475.93 2234.26 1473.7 Q2237.2 1471.48 2243.01 1471.48 L2248.98 1471.48 L2248.98 1471.07 Q2248.98 1468.13 2247.04 1466.53 Q2245.12 1464.91 2241.62 1464.91 Q2239.4 1464.91 2237.29 1465.44 Q2235.19 1465.97 2233.24 1467.04 L2233.24 1463.1 Q2235.58 1462.2 2237.78 1461.76 Q2239.98 1461.3 2242.06 1461.3 Q2247.69 1461.3 2250.47 1464.21 Q2253.24 1467.13 2253.24 1473.06 Z" fill="#000000" fill-rule="evenodd" fill-opacity="1" /><path clip-path="url(#clip210)" d="M 0 0 M2257.71 1451.83 L2261.97 1451.83 L2261.97 1487.85 L2257.71 1487.85 L2257.71 1451.83 Z" fill="#000000" fill-rule="evenodd" fill-opacity="1" /><path clip-path="url(#clip210)" d="M 0 0 M2266.44 1451.83 L2270.7 1451.83 L2270.7 1487.85 L2266.44 1487.85 L2266.44 1451.83 Z" fill="#000000" fill-rule="evenodd" fill-opacity="1" /><path clip-path="url(#clip210)" d="M 0 0 M2297.34 1473.82 L2297.34 1475.9 L2277.76 1475.9 Q2278.04 1480.3 2280.4 1482.62 Q2282.78 1484.91 2287.02 1484.91 Q2289.47 1484.91 2291.76 1484.31 Q2294.08 1483.7 2296.35 1482.5 L2296.35 1486.53 Q2294.05 1487.5 2291.65 1488.01 Q2289.24 1488.52 2286.76 1488.52 Q2280.56 1488.52 2276.92 1484.91 Q2273.31 1481.3 2273.31 1475.14 Q2273.31 1468.77 2276.74 1465.05 Q2280.19 1461.3 2286.02 1461.3 Q2291.25 1461.3 2294.29 1464.68 Q2297.34 1468.03 2297.34 1473.82 M2293.08 1472.57 Q2293.04 1469.07 2291.11 1466.99 Q2289.22 1464.91 2286.07 1464.91 Q2282.5 1464.91 2280.35 1466.92 Q2278.22 1468.94 2277.9 1472.59 L2293.08 1472.57 Z" fill="#000000" fill-rule="evenodd" fill-opacity="1" /><path clip-path="url(#clip210)" d="M 0 0 M2301.81 1451.83 L2306.07 1451.83 L2306.07 1487.85 L2301.81 1487.85 L2301.81 1451.83 Z" fill="#000000" fill-rule="evenodd" fill-opacity="1" /><path clip-path="url(#clip210)" d="M 0 0 M2332.71 1473.82 L2332.71 1475.9 L2313.13 1475.9 Q2313.41 1480.3 2315.77 1482.62 Q2318.15 1484.91 2322.39 1484.91 Q2324.84 1484.91 2327.13 1484.31 Q2329.45 1483.7 2331.72 1482.5 L2331.72 1486.53 Q2329.42 1487.5 2327.02 1488.01 Q2324.61 1488.52 2322.13 1488.52 Q2315.93 1488.52 2312.29 1484.91 Q2308.68 1481.3 2308.68 1475.14 Q2308.68 1468.77 2312.11 1465.05 Q2315.56 1461.3 2321.39 1461.3 Q2326.62 1461.3 2329.66 1464.68 Q2332.71 1468.03 2332.71 1473.82 M2328.45 1472.57 Q2328.41 1469.07 2326.48 1466.99 Q2324.59 1464.91 2321.44 1464.91 Q2317.87 1464.91 2315.72 1466.92 Q2313.59 1468.94 2313.27 1472.59 L2328.45 1472.57 Z" fill="#000000" fill-rule="evenodd" fill-opacity="1" /><path clip-path="url(#clip210)" d="M 0 0 M2353.71 1462.69 L2353.71 1466.71 Q2351.9 1465.79 2349.96 1465.32 Q2348.01 1464.86 2345.93 1464.86 Q2342.76 1464.86 2341.16 1465.83 Q2339.59 1466.81 2339.59 1468.75 Q2339.59 1470.23 2340.72 1471.09 Q2341.85 1471.92 2345.28 1472.69 L2346.74 1473.01 Q2351.28 1473.98 2353.17 1475.76 Q2355.1 1477.52 2355.1 1480.69 Q2355.1 1484.31 2352.22 1486.41 Q2349.38 1488.52 2344.38 1488.52 Q2342.29 1488.52 2340.03 1488.1 Q2337.78 1487.71 2335.28 1486.9 L2335.28 1482.5 Q2337.64 1483.73 2339.93 1484.35 Q2342.22 1484.95 2344.47 1484.95 Q2347.48 1484.95 2349.1 1483.94 Q2350.72 1482.89 2350.72 1481.02 Q2350.72 1479.28 2349.54 1478.36 Q2348.38 1477.43 2344.42 1476.57 L2342.94 1476.23 Q2338.98 1475.39 2337.22 1473.68 Q2335.47 1471.94 2335.47 1468.94 Q2335.47 1465.28 2338.06 1463.29 Q2340.65 1461.3 2345.42 1461.3 Q2347.78 1461.3 2349.86 1461.64 Q2351.95 1461.99 2353.71 1462.69 Z" fill="#000000" fill-rule="evenodd" fill-opacity="1" /><polyline clip-path="url(#clip210)" style="stroke:#ee6677; stroke-width:4; stroke-opacity:1; fill:none" points="
  1968.31,1531.05 2136.31,1531.05 
  "/>
<circle clip-path="url(#clip210)" cx="2066.31" cy="1531.05" r="23" fill="#ee6677" fill-rule="evenodd" fill-opacity="1" stroke="#000000" stroke-opacity="1" stroke-width="0"/>
<path clip-path="url(#clip210)" d="M 0 0 M2164.31 1513.77 L2170.61 1513.77 L2185.93 1542.68 L2185.93 1513.77 L2190.47 1513.77 L2190.47 1548.33 L2184.17 1548.33 L2168.85 1519.42 L2168.85 1548.33 L2164.31 1548.33 L2164.31 1513.77 Z" fill="#000000" fill-rule="evenodd" fill-opacity="1" /><path clip-path="url(#clip210)" d="M 0 0 M2217.11 1534.3 L2217.11 1536.38 L2197.53 1536.38 Q2197.8 1540.78 2200.17 1543.1 Q2202.55 1545.39 2206.79 1545.39 Q2209.24 1545.39 2211.53 1544.79 Q2213.85 1544.18 2216.11 1542.98 L2216.11 1547.01 Q2213.82 1547.98 2211.42 1548.49 Q2209.01 1549 2206.53 1549 Q2200.33 1549 2196.69 1545.39 Q2193.08 1541.78 2193.08 1535.62 Q2193.08 1529.25 2196.51 1525.53 Q2199.96 1521.78 2205.79 1521.78 Q2211.02 1521.78 2214.05 1525.16 Q2217.11 1528.51 2217.11 1534.3 M2212.85 1533.05 Q2212.8 1529.55 2210.88 1527.47 Q2208.98 1525.39 2205.84 1525.39 Q2202.27 1525.39 2200.12 1527.4 Q2197.99 1529.42 2197.67 1533.07 L2212.85 1533.05 Z" fill="#000000" fill-rule="evenodd" fill-opacity="1" /><path clip-path="url(#clip210)" d="M 0 0 M2221.14 1538.1 L2221.14 1522.4 L2225.4 1522.4 L2225.4 1537.93 Q2225.4 1541.61 2226.83 1543.47 Q2228.27 1545.3 2231.14 1545.3 Q2234.59 1545.3 2236.58 1543.1 Q2238.59 1540.9 2238.59 1537.1 L2238.59 1522.4 L2242.85 1522.4 L2242.85 1548.33 L2238.59 1548.33 L2238.59 1544.35 Q2237.04 1546.71 2234.98 1547.86 Q2232.94 1549 2230.23 1549 Q2225.77 1549 2223.45 1546.22 Q2221.14 1543.44 2221.14 1538.1 M2231.86 1521.78 L2231.86 1521.78 Z" fill="#000000" fill-rule="evenodd" fill-opacity="1" /><path clip-path="url(#clip210)" d="M 0 0 M2251.53 1515.04 L2251.53 1522.4 L2260.3 1522.4 L2260.3 1525.71 L2251.53 1525.71 L2251.53 1539.79 Q2251.53 1542.96 2252.39 1543.86 Q2253.27 1544.76 2255.93 1544.76 L2260.3 1544.76 L2260.3 1548.33 L2255.93 1548.33 Q2251 1548.33 2249.12 1546.5 Q2247.25 1544.65 2247.25 1539.79 L2247.25 1525.71 L2244.12 1525.71 L2244.12 1522.4 L2247.25 1522.4 L2247.25 1515.04 L2251.53 1515.04 Z" fill="#000000" fill-rule="evenodd" fill-opacity="1" /><path clip-path="url(#clip210)" d="M 0 0 M2279.79 1526.38 Q2279.08 1525.97 2278.22 1525.78 Q2277.39 1525.57 2276.37 1525.57 Q2272.76 1525.57 2270.81 1527.93 Q2268.89 1530.27 2268.89 1534.67 L2268.89 1548.33 L2264.61 1548.33 L2264.61 1522.4 L2268.89 1522.4 L2268.89 1526.43 Q2270.23 1524.07 2272.39 1522.93 Q2274.54 1521.78 2277.62 1521.78 Q2278.06 1521.78 2278.59 1521.85 Q2279.12 1521.89 2279.77 1522.01 L2279.79 1526.38 Z" fill="#000000" fill-rule="evenodd" fill-opacity="1" /><path clip-path="url(#clip210)" d="M 0 0 M2296.04 1535.3 Q2290.88 1535.3 2288.89 1536.48 Q2286.9 1537.66 2286.9 1540.5 Q2286.9 1542.77 2288.38 1544.11 Q2289.89 1545.43 2292.46 1545.43 Q2296 1545.43 2298.13 1542.93 Q2300.28 1540.41 2300.28 1536.24 L2300.28 1535.3 L2296.04 1535.3 M2304.54 1533.54 L2304.54 1548.33 L2300.28 1548.33 L2300.28 1544.39 Q2298.82 1546.75 2296.65 1547.89 Q2294.47 1549 2291.32 1549 Q2287.34 1549 2284.98 1546.78 Q2282.64 1544.53 2282.64 1540.78 Q2282.64 1536.41 2285.56 1534.18 Q2288.5 1531.96 2294.31 1531.96 L2300.28 1531.96 L2300.28 1531.55 Q2300.28 1528.61 2298.34 1527.01 Q2296.42 1525.39 2292.92 1525.39 Q2290.7 1525.39 2288.59 1525.92 Q2286.48 1526.45 2284.54 1527.52 L2284.54 1523.58 Q2286.88 1522.68 2289.08 1522.24 Q2291.28 1521.78 2293.36 1521.78 Q2298.98 1521.78 2301.76 1524.69 Q2304.54 1527.61 2304.54 1533.54 Z" fill="#000000" fill-rule="evenodd" fill-opacity="1" /><path clip-path="url(#clip210)" d="M 0 0 M2309.01 1512.31 L2313.27 1512.31 L2313.27 1548.33 L2309.01 1548.33 L2309.01 1512.31 Z" fill="#000000" fill-rule="evenodd" fill-opacity="1" /><path clip-path="url(#clip210)" d="M 0 0 M2350.14 1518.61 L2350.14 1531.5 L2363.04 1531.5 L2363.04 1535.43 L2350.14 1535.43 L2350.14 1548.33 L2346.25 1548.33 L2346.25 1535.43 L2333.36 1535.43 L2333.36 1531.5 L2346.25 1531.5 L2346.25 1518.61 L2350.14 1518.61 Z" fill="#000000" fill-rule="evenodd" fill-opacity="1" /><path clip-path="url(#clip210)" d="M 0 0 M2399.63 1526.34 L2399.63 1512.31 L2403.89 1512.31 L2403.89 1548.33 L2399.63 1548.33 L2399.63 1544.44 Q2398.29 1546.75 2396.23 1547.89 Q2394.19 1549 2391.32 1549 Q2386.62 1549 2383.66 1545.25 Q2380.72 1541.5 2380.72 1535.39 Q2380.72 1529.28 2383.66 1525.53 Q2386.62 1521.78 2391.32 1521.78 Q2394.19 1521.78 2396.23 1522.91 Q2398.29 1524.02 2399.63 1526.34 M2385.12 1535.39 Q2385.12 1540.09 2387.04 1542.77 Q2388.98 1545.43 2392.36 1545.43 Q2395.74 1545.43 2397.69 1542.77 Q2399.63 1540.09 2399.63 1535.39 Q2399.63 1530.69 2397.69 1528.03 Q2395.74 1525.34 2392.36 1525.34 Q2388.98 1525.34 2387.04 1528.03 Q2385.12 1530.69 2385.12 1535.39 Z" fill="#000000" fill-rule="evenodd" fill-opacity="1" /><path clip-path="url(#clip210)" d="M 0 0 M2430.53 1534.3 L2430.53 1536.38 L2410.95 1536.38 Q2411.23 1540.78 2413.59 1543.1 Q2415.97 1545.39 2420.21 1545.39 Q2422.66 1545.39 2424.96 1544.79 Q2427.27 1544.18 2429.54 1542.98 L2429.54 1547.01 Q2427.25 1547.98 2424.84 1548.49 Q2422.43 1549 2419.96 1549 Q2413.75 1549 2410.12 1545.39 Q2406.51 1541.78 2406.51 1535.62 Q2406.51 1529.25 2409.93 1525.53 Q2413.38 1521.78 2419.22 1521.78 Q2424.45 1521.78 2427.48 1525.16 Q2430.53 1528.51 2430.53 1534.3 M2426.28 1533.05 Q2426.23 1529.55 2424.31 1527.47 Q2422.41 1525.39 2419.26 1525.39 Q2415.7 1525.39 2413.54 1527.4 Q2411.41 1529.42 2411.09 1533.07 L2426.28 1533.05 Z" fill="#000000" fill-rule="evenodd" fill-opacity="1" /><path clip-path="url(#clip210)" d="M 0 0 M2435 1512.31 L2439.26 1512.31 L2439.26 1548.33 L2435 1548.33 L2435 1512.31 Z" fill="#000000" fill-rule="evenodd" fill-opacity="1" /><path clip-path="url(#clip210)" d="M 0 0 M2465.9 1534.3 L2465.9 1536.38 L2446.32 1536.38 Q2446.6 1540.78 2448.96 1543.1 Q2451.34 1545.39 2455.58 1545.39 Q2458.03 1545.39 2460.33 1544.79 Q2462.64 1544.18 2464.91 1542.98 L2464.91 1547.01 Q2462.62 1547.98 2460.21 1548.49 Q2457.8 1549 2455.33 1549 Q2449.12 1549 2445.49 1545.39 Q2441.88 1541.78 2441.88 1535.62 Q2441.88 1529.25 2445.3 1525.53 Q2448.75 1521.78 2454.59 1521.78 Q2459.82 1521.78 2462.85 1525.16 Q2465.9 1528.51 2465.9 1534.3 M2461.65 1533.05 Q2461.6 1529.55 2459.68 1527.47 Q2457.78 1525.39 2454.63 1525.39 Q2451.07 1525.39 2448.91 1527.4 Q2446.78 1529.42 2446.46 1533.07 L2461.65 1533.05 Z" fill="#000000" fill-rule="evenodd" fill-opacity="1" /><path clip-path="url(#clip210)" d="M 0 0 M2474.59 1515.04 L2474.59 1522.4 L2483.36 1522.4 L2483.36 1525.71 L2474.59 1525.71 L2474.59 1539.79 Q2474.59 1542.96 2475.44 1543.86 Q2476.32 1544.76 2478.98 1544.76 L2483.36 1544.76 L2483.36 1548.33 L2478.98 1548.33 Q2474.05 1548.33 2472.18 1546.5 Q2470.3 1544.65 2470.3 1539.79 L2470.3 1525.71 L2467.18 1525.71 L2467.18 1522.4 L2470.3 1522.4 L2470.3 1515.04 L2474.59 1515.04 Z" fill="#000000" fill-rule="evenodd" fill-opacity="1" /><path clip-path="url(#clip210)" d="M 0 0 M2510 1534.3 L2510 1536.38 L2490.42 1536.38 Q2490.7 1540.78 2493.06 1543.1 Q2495.44 1545.39 2499.68 1545.39 Q2502.13 1545.39 2504.42 1544.79 Q2506.74 1544.18 2509.01 1542.98 L2509.01 1547.01 Q2506.71 1547.98 2504.31 1548.49 Q2501.9 1549 2499.42 1549 Q2493.22 1549 2489.59 1545.39 Q2485.97 1541.78 2485.97 1535.62 Q2485.97 1529.25 2489.4 1525.53 Q2492.85 1521.78 2498.68 1521.78 Q2503.91 1521.78 2506.95 1525.16 Q2510 1528.51 2510 1534.3 M2505.74 1533.05 Q2505.7 1529.55 2503.78 1527.47 Q2501.88 1525.39 2498.73 1525.39 Q2495.16 1525.39 2493.01 1527.4 Q2490.88 1529.42 2490.56 1533.07 L2505.74 1533.05 Z" fill="#000000" fill-rule="evenodd" fill-opacity="1" /><path clip-path="url(#clip210)" d="M 0 0 M2529.49 1526.38 Q2528.77 1525.97 2527.92 1525.78 Q2527.09 1525.57 2526.07 1525.57 Q2522.46 1525.57 2520.51 1527.93 Q2518.59 1530.27 2518.59 1534.67 L2518.59 1548.33 L2514.31 1548.33 L2514.31 1522.4 L2518.59 1522.4 L2518.59 1526.43 Q2519.93 1524.07 2522.09 1522.93 Q2524.24 1521.78 2527.32 1521.78 Q2527.76 1521.78 2528.29 1521.85 Q2528.82 1521.89 2529.47 1522.01 L2529.49 1526.38 Z" fill="#000000" fill-rule="evenodd" fill-opacity="1" /><path clip-path="url(#clip210)" d="M 0 0 M2533.96 1522.4 L2538.22 1522.4 L2538.22 1548.33 L2533.96 1548.33 L2533.96 1522.4 M2533.96 1512.31 L2538.22 1512.31 L2538.22 1517.7 L2533.96 1517.7 L2533.96 1512.31 Z" fill="#000000" fill-rule="evenodd" fill-opacity="1" /><path clip-path="url(#clip210)" d="M 0 0 M2552.73 1525.39 Q2549.31 1525.39 2547.32 1528.07 Q2545.33 1530.74 2545.33 1535.39 Q2545.33 1540.04 2547.29 1542.73 Q2549.28 1545.39 2552.73 1545.39 Q2556.14 1545.39 2558.13 1542.7 Q2560.12 1540.02 2560.12 1535.39 Q2560.12 1530.78 2558.13 1528.1 Q2556.14 1525.39 2552.73 1525.39 M2552.73 1521.78 Q2558.29 1521.78 2561.46 1525.39 Q2564.63 1529 2564.63 1535.39 Q2564.63 1541.75 2561.46 1545.39 Q2558.29 1549 2552.73 1549 Q2547.15 1549 2543.98 1545.39 Q2540.83 1541.75 2540.83 1535.39 Q2540.83 1529 2543.98 1525.39 Q2547.15 1521.78 2552.73 1521.78 Z" fill="#000000" fill-rule="evenodd" fill-opacity="1" /><path clip-path="url(#clip210)" d="M 0 0 M2568.66 1538.1 L2568.66 1522.4 L2572.92 1522.4 L2572.92 1537.93 Q2572.92 1541.61 2574.35 1543.47 Q2575.79 1545.3 2578.66 1545.3 Q2582.11 1545.3 2584.1 1543.1 Q2586.11 1540.9 2586.11 1537.1 L2586.11 1522.4 L2590.37 1522.4 L2590.37 1548.33 L2586.11 1548.33 L2586.11 1544.35 Q2584.56 1546.71 2582.5 1547.86 Q2580.46 1549 2577.76 1549 Q2573.29 1549 2570.97 1546.22 Q2568.66 1543.44 2568.66 1538.1 M2579.38 1521.78 L2579.38 1521.78 Z" fill="#000000" fill-rule="evenodd" fill-opacity="1" /><path clip-path="url(#clip210)" d="M 0 0 M2611.37 1523.17 L2611.37 1527.19 Q2609.56 1526.27 2607.62 1525.8 Q2605.67 1525.34 2603.59 1525.34 Q2600.42 1525.34 2598.82 1526.31 Q2597.25 1527.29 2597.25 1529.23 Q2597.25 1530.71 2598.38 1531.57 Q2599.52 1532.4 2602.94 1533.17 L2604.4 1533.49 Q2608.94 1534.46 2610.83 1536.24 Q2612.76 1538 2612.76 1541.17 Q2612.76 1544.79 2609.89 1546.89 Q2607.04 1549 2602.04 1549 Q2599.96 1549 2597.69 1548.58 Q2595.44 1548.19 2592.94 1547.38 L2592.94 1542.98 Q2595.3 1544.21 2597.59 1544.83 Q2599.89 1545.43 2602.13 1545.43 Q2605.14 1545.43 2606.76 1544.42 Q2608.38 1543.37 2608.38 1541.5 Q2608.38 1539.76 2607.2 1538.84 Q2606.04 1537.91 2602.08 1537.05 L2600.6 1536.71 Q2596.64 1535.87 2594.89 1534.16 Q2593.13 1532.42 2593.13 1529.42 Q2593.13 1525.76 2595.72 1523.77 Q2598.31 1521.78 2603.08 1521.78 Q2605.44 1521.78 2607.52 1522.12 Q2609.61 1522.47 2611.37 1523.17 Z" fill="#000000" fill-rule="evenodd" fill-opacity="1" /></svg>
